<svg xmlns="http://www.w3.org/2000/svg" width="1400" height="600"><path fill="#415064" d="M555.56 612.72c.58-.05.8.73.3 1-39.34 22.3-74.47 52.96-88 65.33-1.1 1.02-2.07 1.9-2.88 2.67 1.07-.3 2.33-.7 3.77-1.12 17.54-5.3 61.83-19.88 101.07-42.35.5-.28 1.06.3.73.78-.16.22-.33.4-.5.5-8.33 4.65-63.74 35.43-89.56 45.2-1.2.45-2.58.5-3.8.1-3.57-1.2-7.1-1.16-10-.7l-29.16 16.6c-.86.47-1.95.17-2.43-.68L434 698c-.5-.84-.2-1.93.67-2.42l29.15-16.6c1.85-2.25 3.7-5.28 4.5-8.96.28-1.26 1-2.37 2-3.17 21.56-17.23 76.3-49.18 84.56-53.96.17-.1.4-.2.68-.2z"/><path fill="#fff" d="M468.75 680.6c17.54-5.3 61.83-19.88 101.07-42.35.5-.28 1.06.3.73.78-.16.22-.33.4-.5.5-8.33 4.65-63.74 35.43-89.56 45.2-1.2.45-2.58.5-3.8.1-3.57-1.2-7.1-1.16-10-.7l-29.16 16.6c-.86.47-1.95.17-2.43-.68l-.57-1.02 30.38-17.3c1.08-.32 2.34-.7 3.78-1.13z" opacity=".15"/><path fill="#313C46" d="M883.02 513.3l-.2-2.5 49.7-3.92.18 2.5zm-.96 1.13l-.37-4.6 51.73-4.08.36 4.6-51.78 4.08zm1.9-2.66l.03.4 47.52-3.76-.03-.33-47.58 3.75z"/><path fill="#fff" d="M942.57 520.1c-7 .54-13.1-4.7-13.66-11.68-.5-7 4.7-13.1 11.7-13.66 7-.55 13.1 4.67 13.68 11.67.56 7-4.66 13.1-11.66 13.66z"/><path fill="#313C46" d="M927.86 508.5c-.6-7.55 5.07-14.2 12.64-14.8 7.55-.58 14.2 5.08 14.8 12.65.58 7.56-5.08 14.2-12.65 14.8-7.55.6-14.2-5.08-14.8-12.65zm25.33-2c-.5-6.4-6.2-11.2-12.6-10.7s-11.2 6.14-10.7 12.54c.5 6.4 6.14 11.2 12.54 10.7 6.4-.5 11.2-6.13 10.7-12.53z"/><path fill="#F2F2F2" d="M917.93 511.03l-.27-3.47c-.03-.4-.4-.73-.82-.7l-19.06 1.5c-.42.04-.73.4-.7.82l.28 3.47c.03.4.4.73.8.7l19.07-1.5c.4-.04.73-.4.7-.82z"/><path fill="#313C46" d="M896.3 512.73l-.26-3.46c-.08-1 .67-1.87 1.66-1.95l19.06-1.5c1-.08 1.87.67 1.95 1.66l.3 3.47c.1 1-.64 1.86-1.64 1.94l-19.05 1.5c-1 .02-1.86-.7-1.94-1.7zm1.86-3.34l.22 2.83 18.48-1.46-.24-2.87-18.46 1.45z"/><path fill="#F2F2F2" d="M910.86 512.36l-.4-5c-.03-.42-.4-.73-.8-.7l-25.4 2c-.4.03-.72.4-.68.82l.4 5c.03.42.4.73.8.7l25.4-2c.4-.04.72-.4.68-.82z"/><path fill="#313C46" d="M882.93 514.56l-.4-5c-.08-1 .67-1.87 1.66-1.95l25.32-1.93c1-.08 1.87.66 1.94 1.66l.4 5c.1 1-.67 1.87-1.66 1.94l-25.37 2c-1 .08-1.87-.67-1.94-1.66zm1.73-4.87l.34 4.4 24.8-2-.37-4.4-24.78 1.95z"/><path fill="#673ab7" d="M890.44 514.73l-.52-6.5c-.03-.42-.4-.74-.8-.7L819.58 513c-.43.03-.73.4-.7.8l.52 6.52c.03.42.4.73.8.7l69.54-5.48c.43-.04.73-.4.7-.8z"/><path fill="#313C46" d="M817.7 520.46l-.5-6.5c-.1-1.35.9-2.53 2.24-2.64l69.55-5.48c1.3-.1 2.5.9 2.6 2.25l.5 6.5c.1 1.3-.9 2.5-2.27 2.6l-69.54 5.5c-1.34.1-2.5-.9-2.63-2.3zm2.93-5.85l.38 4.7 67.7-5.3-.33-4.67-67.7 5.33zm-62.5 201.6l-40.7-59.14-2.73-4-13.77-20c-3.68-5.34-2.33-12.66 3.02-16.35l18.93-13.02c1.1-.76 1.4-2.27.63-3.37-.7-1.12-2.2-1.4-3.32-.63l-18.93 13.03c-7.55 5.2-9.45 15.5-4.26 23.1l13.75 20 2.74 4 40.7 59.1c3.66 5.32 2.3 12.65-3.04 16.33-5.32 3.68-12.65 2.32-16.32-3.02l-33.65-48.9c-5.4-7.82-16.15-9.8-23.96-4.35l-23.8 16.7c-1.12.77-1.4 2.28-.64 3.38.76 1.1 2.3 1.4 3.37.63l21.98-15.1c6.75-4.67 16-2.96 20.63 3.8l32.1 46.6c5.2 7.56 15.55 9.47 23.1 4.27 7.54-5.2 9.45-15.55 4.25-23.08z"/><path fill="#fff" d="M672.8 713.68c10.48-7.2 13.13-21.58 5.9-32.07-7.2-10.43-21.57-13.1-32.07-5.9-10.5 7.2-13.14 21.6-5.92 32.1 7.28 10.5 21.6 13.15 32.1 5.9z"/><path fill="#313C46" d="M638.38 709.37c-8.1-11.77-5.1-27.92 6.66-36.02 11.76-8.1 27.9-5.1 36 6.65 8.1 11.76 5.1 27.92-6.65 36-11.8 8.1-27.98 5.12-36.07-6.63zm38-26.16c-6.33-9.13-18.95-11.5-28.13-5.12-9.2 6.32-11.53 18.94-5.2 28.12 6.32 9.2 18.94 11.5 28.13 5.2 9.2-6.33 11.52-18.97 5.2-28.15z"/><path fill="#fff" d="M666.58 704.66c5.5-3.8 6.9-11.34 3.1-16.85-3.78-5.5-11.33-6.9-16.84-3.1-5.5 3.8-6.9 11.4-3.1 16.9 3.78 5.5 11.33 6.9 16.84 3.1z"/><path fill="#313C46" d="M647.4 703.16c-4.68-6.8-2.95-16.1 3.84-20.78 6.8-4.68 16.12-2.96 20.8 3.82 4.67 6.8 2.95 16.12-3.85 20.8-6.8 4.67-16.18 2.96-20.8-3.84zm19.96-13.74c-2.9-4.22-8.68-5.28-12.9-2.38-4.23 2.9-5.3 8.7-2.4 12.9 2.9 4.23 8.7 5.3 12.9 2.4 4.24-2.92 5.3-8.7 2.4-12.92z"/><path fill="#fff" d="M787.73 489.68c-9.36-3.97-20.1-2.9-28.5 2.88L716.5 522l3.06 4.46 40.3-27.74c8.4-5.77 19.13-6.86 28.5-2.9l18.64 7.9 2.12-5-21.4-9.04z"/><path fill="#313C46" d="M718.3 527.32l-3.08-4.46c-.47-.7-.3-1.66.4-2.14l42.76-29.43c8.86-6.1 20.06-7.3 29.95-3.08l21.4 9.04c.37.2.66.5.8.84.17.4.16.8 0 1.2l-2.12 5c-.3.76-1.2 1.13-2 .8l-18.6-7.9c-8.93-3.78-19.02-2.76-27.02 2.74l-40.3 27.73c-.7.5-1.65.33-2.12-.37zm.32-4.94l1.34 1.95L759 497.46c8.86-6.1 20.06-7.24 29.96-3.05l17.23 7.37.9-2.17-20-8.47c-8.94-3.8-19.04-2.77-27.04 2.73l-41.5 28.56z"/><path fill="#fff" d="M811.94 506.02l2.37-5.36c.4-.85 0-1.83-.8-2.2l-10.65-4.7c-.84-.38-1.83 0-2.2.85l-2.37 5.4c-.37.87 0 1.86.86 2.2l10.66 4.7c.83.4 1.82 0 2.2-.83z"/><path fill="#313C46" d="M797.1 502.48c-.64-.94-.74-2.1-.28-3.13l2.35-5.36c.72-1.67 2.63-2.4 4.23-1.7l10.67 4.7c1.54.7 2.33 2.66 1.64 4.22l-2.3 5.37c-.37.8-1 1.4-1.8 1.7-.8.32-1.67.3-2.44-.07l-10.65-4.7c-.55-.24-1-.6-1.35-1.1zm15.8-2.44l-10.73-4.9-2.54 5.6c.02 0 .04.03.06.04l10.6 4.7 2.56-5.44z"/><path fill="#fff" d="M846.4 574.9c.35 10.17-4.5 19.82-12.9 25.6l-42.74 29.4-3.08-4.46 40.3-27.73c8.38-5.7 13.24-15.4 12.88-25.53l-.7-20.23 5.4-.2.83 23.2z"/><path fill="#313C46" d="M786.8 624.17l40.32-27.73c8-5.5 12.55-14.57 12.22-24.27l-.72-20.23c-.03-.84.63-1.55 1.48-1.58l5.42-.2c.4 0 .8.13 1.1.42.27.26.46.64.5 1.07l.8 23.2c.4 10.75-4.67 20.8-13.54 26.9l-42.75 29.42c-.7.5-1.65.3-2.13-.4l-3.08-4.47c-.48-.68-.3-1.64.4-2.13zm45.85-24.94c8-5.5 12.55-14.57 12.2-24.27l-.77-21.67-2.35.02.67 18.7c.37 10.74-4.7 20.8-13.54 26.9l-39.04 26.86 1.33 1.95 41.5-28.55z"/><path fill="#fff" d="M839.76 546.46l5.86-.3c.92-.05 1.7.66 1.75 1.58l.58 11.65c.06.9-.65 1.7-1.58 1.7l-5.85.3c-.92.03-1.7-.68-1.76-1.6l-.6-11.64c-.03-.9.68-1.7 1.6-1.75z"/><path fill="#313C46" d="M837.23 559.93l-.58-11.64c-.06-.9.24-1.7.8-2.3.58-.7 1.37-1.08 2.24-1.1l5.8-.3c1.7-.1 3.26 1.33 3.36 3.02l.6 11.65c.06 1.76-1.3 3.26-3.06 3.36l-5.84.28c-1.13.07-2.2-.44-2.8-1.37-.37-.48-.55-1.06-.58-1.65zm2.48-11.8l.6 11.63c0 .03 0 .06 0 .08l6.18-.37-.73-11.8-6 .46zM724.4 630.6l-32.26-46.86c-12.07-17.53-7.63-41.6 9.9-53.67l22.86-15.73 4.82 7-22.86 15.72c-13.68 9.42-17.14 28.2-7.73 41.86l32.28 46.9c9.4 13.66 28.2 17.13 41.9 7.72l22.86-15.73 4.8 7-22.86 15.78c-17.54 12.06-41.6 7.62-53.67-9.92z"/><path fill="#fff" d="M730.8 612.43l-16.4-23.83c-1.68-2.43-5.04-3.05-7.46-1.38l-9.88 6.8c-2.42 1.66-3.05 5.02-1.37 7.45l16.4 23.83c1.6 2.43 5 3.05 7.4 1.38l9.86-6.8c2.43-1.67 3.05-5.03 1.4-7.45z"/><path fill="#313C46" d="M709.75 626.9l-16.4-23.82c-2.56-3.72-1.62-8.83 2.1-11.4l9.9-6.8c3.7-2.55 8.8-1.6 11.37 2.1l16.4 23.84c2.57 3.73 1.62 8.84-2.1 11.4l-9.87 6.8c-3.72 2.56-8.84 1.62-11.4-2.1zm2.3-36.7c-.78-1.14-2.36-1.44-3.5-.65l-9.88 6.8c-1.13.78-1.43 2.4-.64 3.52l16.38 23.83c.8 1.13 2.4 1.42 3.58.64l9.88-6.8c1.16-.77 1.45-2.35.66-3.5l-16.4-23.83z"/><path fill="#fff" d="M488.67 503.54l7.95-10.63-25.86-19.3-7.95 10.6z"/><path fill="#313C46" d="M461.04 484.42l9.47-12.64 27.9 20.88L489 505.3l-27.9-20.83zm9.97-9.1l-6.4 8.6 23.87 17.85 6.43-8.6-23.9-17.85z"/><path fill="#E6E6E6" d="M471.57 473.77l-8.28 11.07-2.1-1.56 8.3-11.06z"/><path fill="#fff" d="M460.24 487.9l13.37-17.87-2.43-1.87-13.4 17.84z"/><path fill="#313C46" d="M456.64 486.18l14.32-19.12 3.75 2.8L460.4 489l-3.76-2.82zm14.64-16.9l-12.43 16.58 1.23.92 12.43-16.6-1.2-.9zm87.3 80.22l-2.62-5.72-48.6-36.4-1.8 2.4z"/><path fill="#fff" d="M532.66 535.5l7.02-9.36-5.95-4.46-7.02 9.38z"/><path fill="#313C46" d="M524.94 531.3l8.54-11.4 7.97 5.98-8.54 11.4-7.9-5.97zm9.05-7.84l-5.57 7.35 3.92 3 5.5-7.35-3.9-2.93z"/><path fill="#fff" d="M524.07 534.93l12.63-16.87-41.07-30.75L483 504.2z"/><path fill="#673ab7" d="M536.05 518.14L524 534.24l-26.2-19.62 12.05-16.1z"/><path fill="#313C46" d="M481.24 504.42l14.14-18.88 43.1 32.27-14.15 18.9-43.1-32.23zm14.65-15.34l-11.17 14.83 39.04 29.3 11.1-14.82-39.03-29.25z"/><path fill="#fff" d="M479.3 509.55l20.46-27.3-3.8-2.86-20.46 27.3z"/><path fill="#313C46" d="M473.73 506.94l21.97-29.32 5.83 4.37-21.97 29.3-5.83-4.4zm22.47-25.78l-18.93 25.28 1.8 1.34 18.92-25.3-1.8-1.32z"/><path fill="#2E556B" d="M531.58 519.76l2.57-3.43.33.25-2.57 3.42z"/><path fill="#313C46" d="M530.9 519.86l3.15-4.22 1.13.84-3.17 4.23z"/><path fill="#2E556B" d="M528.47 517.43l2.57-3.43.33.25-2.57 3.43z"/><path fill="#313C46" d="M527.77 517.53l3.17-4.23 1.13.85-3.17 4.23z"/><path fill="#2E556B" d="M525.5 515.2l2.57-3.43.32.25-2.6 3.42z"/><path fill="#313C46" d="M529.12 511.9l-3.16 4.23-1.14-.85 3.17-4.22z"/><path fill="#2E556B" d="M525.5 509.8l-2.57 3.44-.33-.24 2.57-3.43z"/><path fill="#313C46" d="M521.9 513.14l3.18-4.23 1.12.9-3.17 4.23z"/><path fill="#2E556B" d="M519.5 510.7l2.55-3.43.33.24-2.57 3.5z"/><path fill="#313C46" d="M518.8 510.8l3.15-4.23 1.13.84-3.17 4.3z"/><path fill="#2E556B" d="M519.4 505.25l-2.56 3.43-.33-.24 2.6-3.43z"/><path fill="#313C46" d="M515.8 508.57l3.2-4.22 1.1.84-3.16 4.2z"/><path fill="#2E556B" d="M516.28 502.9l-2.57 3.42-.3-.24 2.6-3.43z"/><path fill="#313C46" d="M512.67 506.22l3.17-4.23 1.12.8-3.17 4.22z"/><path fill="#2E556B" d="M510.25 503.78l2.57-3.43.33.25-2.57 3.43z"/><path fill="#313C46" d="M509.55 503.88l3.17-4.23 1.13.85-3.17 4.23z"/><path fill="#2E556B" d="M510.18 498.33l-2.57 3.43-.3-.24 2.6-3.43z"/><path fill="#313C46" d="M506.58 501.65l3.16-4.22 1.14.85-3.18 4.23z"/><path fill="#2E556B" d="M503.93 499.05l2.57-3.44.32.3-2.56 3.44z"/><path fill="#313C46" d="M503.23 499.15l3.17-4.23 1.12.85-3.16 4.23z"/><path fill="#2E556B" d="M500.8 496.7l2.58-3.42.33.25-2.5 3.43z"/><path fill="#313C46" d="M500.1 496.8l3.18-4.22 1.13.85-3.1 4.23z"/><path fill="#fff" d="M911.63 577.16l10.4 12.72L953 564.56l-10.4-12.72z"/><path fill="#313C46" d="M942.82 549.65l12.38 15.13-33.4 27.3-12.38-15.14 33.4-27.3zm7.97 14.68l-8.47-10.28-28.56 23.33 8.42 10.3 28.54-23.35z"/><path fill="#E6E6E6" d="M952.47 565.43l-10.82-13.26 2.5-2.03 10.8 13.25z"/><path fill="#fff" d="M956.3 569.03l-17.46-21.38 2.98-2.44 17.47 21.4z"/><path fill="#313C46" d="M942 543.83l18.73 22.9-4.5 3.67-18.7-22.9 4.5-3.67zm16 22.62l-16.24-19.87-1.46 1.2 16.23 19.87 1.48-1.2zM835.57 647.5l7.65-1.45 58.23-47.57-2.35-2.88z"/><path fill="#fff" d="M860.08 620.5l9.2 11.24 7.1-5.82-9.16-11.24z"/><path fill="#313C46" d="M867.44 612.5l11.16 13.64-9.55 7.8-11.16-13.65 9.5-7.8zm6.75 13.2l-7.2-8.8-4.7 3.83 7.13 8.8 4.7-3.83z"/><path fill="#fff" d="M863.36 610.36l16.5 20.2 49.2-40.2-16.5-20.2z"/><path fill="#673ab7" d="M864.22 610.4l15.76 19.3 31.4-25.64-15.78-19.3z"/><path fill="#313C46" d="M912.77 567.97l18.48 22.6-51.6 42.2-18.5-22.63 51.62-42.17zm14.08 22.17l-14.53-17.77-46.76 38.22 14.52 17.7 46.77-38.2z"/><path fill="#fff" d="M907.17 564.1l26.74 32.73 4.6-3.74-26.7-32.77z"/><path fill="#313C46" d="M911.97 558.18l28.7 35.14-6.98 5.7-28.77-35.12 7-5.72zm24.3 34.7l-24.75-30.3-2.14 1.75 24.75 30.3 2.15-1.76z"/><path fill="#2E556B" d="M882.3 628.3l-3.34-4.1.4-.33 3.34 4.1z"/><path fill="#313C46" d="M879.43 623.04l4.13 5.07-1.34 1.1-4.14-5z"/><path fill="#2E556B" d="M883.08 620.85l3.36 4.12-.4.3-3.36-4.1z"/><path fill="#313C46" d="M883.16 619.98l4.15 5.07-1.3 1.1-4.14-5.06z"/><path fill="#2E556B" d="M889.62 622.34l-3.36-4.1.4-.33 3.35 4.17z"/><path fill="#313C46" d="M886.72 617.08l4.14 5.06-1.35 1.1-4.1-5.06z"/><path fill="#2E556B" d="M893.05 619.52l-3.36-4.1.4-.33 3.3 4.1z"/><path fill="#313C46" d="M890.2 614.25l4.13 5.07-1.35 1.1-4.14-5.07z"/><path fill="#2E556B" d="M896.78 616.47l-3.35-4.1.4-.33 3.34 4.1z"/><path fill="#313C46" d="M893.92 611.2l4.14 5.06-1.34 1.1-4.14-5.07z"/><path fill="#2E556B" d="M897.4 609.16l3.35 4.1-.4.32-3.34-4.1z"/><path fill="#313C46" d="M900.3 614.44l-4.15-5.06 1.35-1.1 4.14 5.06z"/><path fill="#2E556B" d="M904.12 610.48l-3.36-4.1.4-.33 3.35 4.1z"/><path fill="#313C46" d="M901.25 605.2l4.14 5.07-1.4 1.1-4.15-5.06z"/><path fill="#2E556B" d="M904.9 603.03l3.36 4.1-.4.32-3.36-4.1z"/><path fill="#313C46" d="M904.98 602.15l4.15 5.07-1.36 1.1-4.13-5.06z"/><path fill="#2E556B" d="M911.4 604.58l-3.36-4.1.4-.33 3.35 4.1z"/><path fill="#313C46" d="M908.55 599.25l4.14 5.05-1.4 1.12-4.16-5.07z"/><path fill="#2E556B" d="M912.48 596.84l3.36 4.1-.4.33-3.36-4.12z"/><path fill="#313C46" d="M912.56 595.96l4.14 5.06-1.35 1.1-4.14-5.05z"/><path fill="#2E556B" d="M919.2 598.2l-3.37-4.12.4-.32 3.35 4.1z"/><path fill="#313C46" d="M916.3 592.9l4.14 5.08-1.36 1.1-4.14-5.07z"/><path fill="#fff" d="M1001.73 519.3l21.94 8.32c.8.3 1.7-.1 2.02-.9l26-68.68c.3-.8-.1-1.7-.9-2l-21.97-8.33c-.8-.3-1.7.1-2 .9l-26.06 68.7c-.3.8.1 1.7.9 2z"/><path fill="#313C46" d="M1052.65 458.4l-26.06 68.67c-.5 1.3-2 1.97-3.3 1.47l-21.97-8.32c-1.3-.5-1.98-1.97-1.48-3.28l26.04-68.68c.5-1.3 1.97-1.97 3.3-1.47l21.93 8.3c1.3.5 1.97 1.92 1.47 3.3zm-50.9 59.24c-.12.3.03.63.32.74l21.94 8.32c.37.1.7-.04.8-.33l26.06-68.68c.12-.3-.03-.7-.32-.8l-21.93-8.3c-.3-.14-.64 0-.75.3l-26.05 68.7z"/><path fill="#673ab7" d="M1013.7 500.1l13.73 5.22c.5.2 1.07-.06 1.26-.57l10.7-28.27c.2-.5-.1-1.07-.6-1.26l-13.73-5.2c-.5-.2-1.07.05-1.26.56l-10.72 28.27c-.2.5.07 1.06.57 1.26z"/><path fill="#313C46" d="M1040.33 476.83l-10.72 28.26c-.32 1-1.5 1.5-2.5 1.1l-13.7-5.2c-1-.4-1.5-1.54-1.14-2.55l10.74-28.28c.37-1 1.5-1.53 2.5-1.15l13.74 5.2c1 .38 1.52 1.52 1.13 2.53zm-15.57-5.9l-10.7 28.27 13.73 5.2 10.7-28.26-13.8-5.2zm-18.06 41.67c.67.24 1 1 .75 1.68-.25.67-1 1-1.68.75-.67-.26-1.02-1-.75-1.68.25-.68 1-1 1.68-.76zm4.84 1.83c.67.26 1.02 1 .76 1.68-.26.7-1 1.07-1.7.8-.65-.23-1-1-.74-1.7s1-1 1.68-.73zm4.23 1.6c.68.26 1 1 .76 1.7-.25.67-1 1-1.68.75-.68-.26-1-1-.76-1.7.2-.66 1-1 1.62-.74zm4.3 1.64c.7.25 1 1 .77 1.68-.25.68-1 1.02-1.68.76-.68-.2-1.02-1-.76-1.62.25-.68 1-1 1.68-.76zm4.33 1.63c.67.26 1 1.02.75 1.7-.25.66-1 1-1.68.75s-1-1.02-.76-1.68c.3-.68 1.07-1.02 1.7-.76zm-16-11.16c.65.26 1 1 .75 1.7-.27.66-1.02 1-1.7.75-.66-.3-1-1.08-.74-1.7.3-.7 1-1 1.7-.8zm4.83 1.84c.67.25 1 1 .75 1.68-.25.68-1 1-1.68.76-.67-.25-1-1-.76-1.68.27-.68 1-1 1.7-.76zm4.23 1.62c.68.24 1 1 .76 1.67-.25.68-1 1-1.68.76-.68-.26-1-1-.76-1.68.25-.68 1-1 1.68-.76zm4.3 1.62c.68.26 1 1 .77 1.7-.26.65-1 1-1.7.73-.66-.25-1-1-.74-1.67.2-.67 1-1.02 1.62-.76zm4.32 1.64c.68.25 1 1 .76 1.67-.25.68-1 1.02-1.68.76-.68-.3-1-1-.76-1.7.25-.7 1-1 1.68-.8zm-15.9-11.42c.66.25 1 1 .75 1.67-.26.7-1 1.08-1.68.8s-1.02-1-.76-1.7c.2-.64 1-1 1.62-.72zm4.82 1.84c.7.25 1.02 1 .77 1.68-.25.66-1 1-1.68.76-.7-.27-1.07-1.02-.8-1.7.23-.66 1-1 1.7-.74zm4.25 1.6c.67.26 1 1 .76 1.68-.2.67-1 1-1.63.75-.67-.2-1-1-.76-1.62.26-.67 1-1 1.7-.75zm4.3 1.62c.68.27 1.02 1 .76 1.7-.2.67-1 1-1.62.75-.68-.25-1-1-.76-1.68.25-.68 1-1.02 1.68-.76zm4.32 1.65c.67.26 1 1 .76 1.68-.26.67-1 1-1.7.76-.66-.3-1-1.07-.75-1.7.26-.7 1-1 1.7-.8zm-2.1-47.87c.68.27 1.03 1 .77 1.7-.26.66-1 1-1.68.75-.68-.26-1.02-1-.76-1.7.25-.66 1-1 1.68-.75zm4.85 1.84c.68.26 1 1.02.76 1.68-.25.68-1 1.02-1.68.76-.68-.25-1-1-.76-1.68.25-.68 1-1 1.68-.76zm4.24 1.6c.67.27 1 1 .76 1.7-.26.7-1 1-1.7.76-.66-.25-1-1-.75-1.68.26-.7 1-1.02 1.7-.77zm4.3 1.64c.68.25 1.02 1 .76 1.7-.25.66-1 1-1.68.74-.68-.26-1-1-.76-1.68.25-.68 1-1 1.68-.76zm4.32 1.64c.67.25 1 1 .76 1.68-.26.68-1 1-1.7.76-.66-.25-1-1-.75-1.68.2-.68 1-1 1.63-.76zm-16.02-11.17c.68.27 1.02 1 .76 1.7-.25.66-1 1-1.68.75-.67-.26-1-1-.75-1.7.2-.66 1-1 1.6-.75zm4.84 1.84c.7.26 1.02 1 .77 1.68-.25.68-1 1.02-1.68.76-.7-.2-1.08-1-.8-1.62.23-.68 1-1 1.7-.76zm4.25 1.6c.67.26 1 1 .76 1.7-.2.67-1 1-1.63.75-.67-.25-1-1-.76-1.68.26-.68 1-1 1.7-.76zm4.3 1.63c.68.27 1 1.02.76 1.7-.2.67-1 1-1.62.76-.68-.27-1-1-.76-1.7.25-.66 1-1 1.68-.75zm4.32 1.65c.67.25 1 1 .75 1.68-.26.68-1 1.02-1.68.76-.67-.3-1-1-.76-1.7.26-.7 1-1 1.7-.8zm-15.9-11.42c.65.25 1 1 .75 1.68-.27.7-1.02 1.07-1.7.8-.66-.24-1-1-.75-1.7.26-.7 1-1 1.7-.73zm4.83 1.84c.67.25 1 1 .76 1.68-.26.68-1 1-1.7.76-.66-.2-1-1-.75-1.63.3-.67 1.07-1 1.7-.75zm4.23 1.6c.68.26 1 1 .76 1.7-.3.65-1.07 1-1.7.75-.7-.27-1-1.02-.8-1.7.25-.66 1-1 1.7-.75zm4.3 1.63c.68.26 1 1.02.77 1.7-.27.66-1 1-1.7.75-.66-.26-1-1.02-.74-1.68.25-.68 1-1.02 1.68-.76zm4.32 1.65c.68.25 1 1 .76 1.67-.2.68-1 1.02-1.62.76-.68-.26-1-1-.76-1.68.25-.67 1-1.02 1.68-.75zm-28.6 35.75c.66.25 1 1 .75 1.67-.26.68-1 1.02-1.7.76-.66-.25-1-1-.75-1.7.26-.65 1-1 1.7-.73zm4.3 1.62c.67.26 1 1.02.75 1.68-.25.68-1 1.02-1.68.76-.68-.25-1-1-.76-1.68.25-.68 1-1 1.68-.76zm4.3 1.64c.68.26 1 1 .77 1.68-.26.68-1 1-1.7.76-.66-.25-1-1-.75-1.68.26-.68 1-1 1.7-.76zm-6.92-7.72c.67.26 1 1 .75 1.68-.25.68-1 1.02-1.68.76-.68-.25-1-1-.76-1.68.25-.67 1-1 1.7-.75zm4.3 1.63c.68.27 1 1 .76 1.7-.3.66-1.07 1-1.7.75-.7-.26-1-1-.8-1.7.25-.66 1-1 1.7-.75zm4.32 1.63c.67.27 1 1.02.75 1.7-.26.67-1 1-1.68.75-.67-.25-1-1-.76-1.68.26-.68 1-1 1.7-.76zm-6.85-7.97c.7.26 1.02 1 .77 1.7-.25.66-1 1-1.68.75-.7-.26-1.07-1-.8-1.7s1-1 1.7-.75zm4.32 1.64c.67.25 1 1 .76 1.68-.27.68-1 1-1.7.76-.66-.2-1-1-.74-1.62.25-.68 1-1.02 1.68-.76zm4.3 1.63c.7.26 1 1 .77 1.7-.3.67-1.07 1-1.7.75-.7-.27-1-1-.8-1.7.25-.66 1-1 1.7-.74zm-7.12-7.15c.67.25 1 1 .75 1.68-.26.67-1 1-1.7.76-.66-.3-1-1.08-.74-1.7.3-.7 1-1 1.7-.8zm4.3 1.62c.67.27 1 1.02.75 1.7-.26.66-1 1-1.68.75-.67-.26-1.02-1-.76-1.7.3-.65 1.07-1 1.7-.75zm4.3 1.63c.68.27 1.02 1.02.77 1.7-.26.67-1.02 1-1.7.75-.66-.25-1-1-.74-1.68.25-.68 1-1 1.68-.76zm-6.92-7.7c.67.25 1 1 .76 1.68-.27.67-1.02 1.02-1.7.75-.66-.25-1-1-.75-1.68.2-.68 1-1 1.63-.76zm4.3 1.63c.67.26 1.02 1 .76 1.68-.26.7-1 1.07-1.68.8-.68-.23-1.02-1-.76-1.7.25-.64 1-1 1.68-.72zm4.32 1.63c.66.27 1 1 .75 1.7-.26.66-1 1-1.68.75-.67-.2-1.02-1-.75-1.63.25-.67 1-1 1.68-.76zm-6.84-7.96c.68.24 1.02 1 .76 1.67-.26.68-1 1-1.68.76-.68-.26-1-1-.76-1.7.25-.66 1-1 1.68-.74zm4.3 1.62c.68.25 1 1 .77 1.68-.26.68-1.02 1.02-1.68.76-.68-.25-1.03-1-.76-1.68.2-.68 1-1 1.62-.76zm4.32 1.64c.67.25 1.02 1 .76 1.68-.26.68-1 1-1.7.76s-1-1.02-.74-1.68c.25-.68 1-1.02 1.68-.76z"/><path fill="#fff" d="M1026.96 539.45l19.38 13.22c.72.48 1.7.3 2.18-.4l41.37-60.7c.43-.72.3-1.7-.47-2.18l-19.4-13.27c-.7-.48-1.67-.3-2.16.4l-41.38 60.7c-.5.7-.3 1.68.4 2.17z"/><path fill="#313C46" d="M1090.7 492.1l-41.37 60.7c-.8 1.18-2.38 1.47-3.53.68l-19.4-13.2c-1.16-.8-1.46-2.4-.68-3.55l41.4-60.7c.77-1.15 2.37-1.46 3.52-.67l19.4 13.22c1.15.8 1.45 2.38.66 3.54zm-63.35 45.74c-.18.26-.1.62.16.8l19.4 13.22c.3.17.68.1.8-.15l41.4-60.7c.2-.2.1-.6-.13-.8L1069.6 477c-.28-.2-.64-.1-.8.2l-41.4 60.7z"/><path fill="#673ab7" d="M1043.1 523.6l12.12 8.26c.45.3 1.05.18 1.35-.26l17.04-24.98c.3-.44.2-1.05-.2-1.35l-12.2-8.27c-.42-.3-1.03-.2-1.33.24l-17.04 25c-.3.44-.18 1.04.27 1.35z"/><path fill="#313C46" d="M1074.4 507.17l-17 24.98c-.62.9-1.84 1.13-2.73.52l-12.14-8.27c-.9-.6-1.12-1.83-.52-2.73l17.1-24.98c.6-.9 1.8-1.18 2.7-.57l12.16 8.28c.9.6 1.12 1.83.5 2.7zm-13.74-9.37l-17.02 25 12.14 8.24 17-24.96-12.12-8.28z"/><g fill="#313C46"><path d="M1033.35 534.1c.6.4.75 1.2.35 1.8-.4.6-1.22.76-1.8.34-.6-.4-.76-1.2-.36-1.8.4-.6 1.22-.76 1.8-.35zm4.28 2.9c.6.4.76 1.22.35 1.82-.4.6-1.22.75-1.8.35-.6-.4-.76-1.22-.36-1.8.4-.6 1.23-.76 1.8-.36z"/><circle cx="1040.641" cy="540.637" r="1.303"/><path d="M1045.18 542.15c.6.4.75 1.22.34 1.82-.4.6-1.2.75-1.8.33-.6-.4-.76-1.2-.35-1.8.4-.6 1.22-.76 1.8-.35zm3.82 2.6c.6.4.74 1.22.34 1.8-.4.6-1.22.77-1.8.35-.6-.4-.76-1.2-.36-1.8.4-.6 1.22-.75 1.8-.35z"/></g><path fill="#313C46" d="M1036.03 530.16c.6.4.75 1.22.35 1.8-.4.6-1.22.76-1.8.36-.6-.4-.76-1.23-.36-1.8.4-.6 1.22-.76 1.8-.36zm4.27 2.92c.6.4.76 1.2.36 1.8-.4.6-1.22.76-1.8.35-.6-.4-.76-1.2-.36-1.8.4-.6 1.23-.76 1.8-.35zm3.76 2.55c.6.4.74 1.22.34 1.8-.4.6-1.2.76-1.8.35-.6-.4-.76-1.2-.35-1.8.4-.6 1.2-.76 1.8-.36zm3.8 2.6c.6.4.75 1.2.34 1.8-.4.6-1.2.76-1.8.35-.6-.4-.76-1.22-.35-1.8.4-.6 1.22-.77 1.8-.36zm3.8 2.6c.6.4.76 1.2.36 1.8-.4.6-1.22.75-1.8.35-.6-.4-.76-1.23-.36-1.82.4-.6 1.22-.75 1.8-.34zM1038.88 526c.6.4.74 1.22.34 1.8-.4.6-1.22.75-1.82.35-.6-.4-.75-1.2-.34-1.8.4-.6 1.22-.76 1.82-.36zm4.27 2.92c.6.4.75 1.2.35 1.8-.4.6-1.22.76-1.8.35-.6-.4-.76-1.22-.36-1.8.4-.6 1.22-.76 1.82-.35zm3.75 2.55c.6.4.75 1.2.34 1.8-.4.6-1.22.76-1.82.35-.6-.4-.75-1.2-.33-1.8.4-.6 1.2-.76 1.8-.35zm3.8 2.6c.6.4.75 1.2.35 1.8-.4.6-1.23.76-1.8.34-.6-.4-.77-1.2-.36-1.8.4-.6 1.2-.7 1.8-.3zm3.82 2.6c.6.4.75 1.2.34 1.8-.4.6-1.22.74-1.82.34-.6-.4-.75-1.2-.34-1.8.4-.6 1.22-.7 1.82-.3z"/><g fill="#313C46"><path d="M1063.66 489.64c.6.4.75 1.2.34 1.8-.4.6-1.2.76-1.8.35-.6-.4-.75-1.28-.35-1.87.4-.6 1.2-.75 1.8-.34z"/><circle cx="1067.207" cy="493.628" r="1.303"/><path d="M1071.68 495.1c.6.4.75 1.22.35 1.8-.4.6-1.22.76-1.8.36-.6-.4-.76-1.22-.36-1.82.4-.6 1.22-.75 1.8-.34zm3.82 2.6c.58.4.74 1.2.33 1.8-.4.6-1.2.76-1.8.35-.6-.4-.76-1.22-.35-1.8.4-.6 1.2-.75 1.8-.35zm3.8 2.6c.6.4.75 1.2.34 1.8s-1.2.76-1.8.35c-.6-.4-.75-1.22-.35-1.82.4-.58 1.2-.75 1.8-.34z"/></g><g fill="#313C46"><circle cx="1065.608" cy="486.779" r="1.304"/><path d="M1070.62 488.6c.6.43.75 1.24.34 1.84-.4.6-1.2.75-1.8.34-.6-.4-.75-1.22-.35-1.82.4-.6 1.27-.75 1.87-.34zm3.74 2.58c.6.4.75 1.2.35 1.8-.4.6-1.2.75-1.8.35-.6-.4-.7-1.22-.3-1.82.4-.53 1.2-.7 1.8-.3z"/><circle cx="1077.434" cy="494.841" r="1.304"/><circle cx="1081.248" cy="497.441" r="1.304"/></g><path fill="#313C46" d="M1069.17 481.55c.6.4.75 1.2.35 1.8-.4.6-1.22.75-1.8.35-.6-.4-.76-1.22-.36-1.82.4-.6 1.23-.75 1.8-.33zm4.3 2.9c.6.4.74 1.2.34 1.8-.4.6-1.2.77-1.8.36-.6-.4-.7-1.2-.3-1.8.4-.6 1.22-.7 1.8-.3zm3.73 2.55c.6.4.75 1.23.34 1.82-.4.6-1.2.75-1.8.34-.6-.4-.76-1.2-.35-1.8.4-.6 1.2-.76 1.8-.35zm3.8 2.6c.6.4.76 1.22.35 1.82-.4.6-1.22.75-1.82.34-.6-.4-.74-1.22-.34-1.82.4-.6 1.2-.75 1.8-.33zm3.8 2.6c.6.4.77 1.22.36 1.82-.4.6-1.22.75-1.8.34-.6-.4-.76-1.22-.36-1.82.4-.6 1.23-.75 1.8-.35zm-36.15 28.08c.6.4.75 1.2.34 1.8s-1.28.76-1.88.35c-.58-.4-.75-1.2-.34-1.8.4-.6 1.22-.76 1.82-.35zm3.8 2.6c.6.4.75 1.2.35 1.8-.4.6-1.23.75-1.8.34-.6-.4-.76-1.22-.36-1.82.4-.6 1.2-.74 1.8-.33zm3.82 2.6c.6.4.75 1.2.34 1.8-.4.6-1.2.75-1.8.34-.6-.4-.7-1.22-.3-1.82.4-.58 1.2-.74 1.8-.33zm-4.94-9.14c.6.4.75 1.23.34 1.83-.4.58-1.22.74-1.82.33-.58-.4-.75-1.22-.33-1.8.4-.6 1.2-.76 1.8-.36zm3.8 2.6c.6.4.75 1.22.35 1.8-.4.6-1.23.76-1.82.36-.6-.4-.75-1.22-.34-1.8.4-.6 1.22-.76 1.8-.36zm3.82 2.6c.6.4.75 1.22.34 1.8-.47.6-1.28.76-1.88.36-.6-.4-.75-1.23-.34-1.82.4-.6 1.22-.75 1.82-.34z"/><g fill="#313C46"><circle cx="1053.429" cy="513.263" r="1.303"/><path d="M1057.96 514.77c.6.4.75 1.23.35 1.83-.4.58-1.2.74-1.8.33-.6-.4-.7-1.2-.3-1.8.4-.6 1.2-.76 1.8-.36zm3.82 2.6c.6.4.75 1.23.34 1.8-.4.6-1.2.77-1.8.36s-.76-1.2-.35-1.8c.4-.6 1.2-.76 1.8-.36z"/></g><path fill="#313C46" d="M1056.5 508.75c.6.4.76 1.22.35 1.82-.4.58-1.22.75-1.82.33-.58-.4-.75-1.2-.34-1.8.4-.6 1.2-.76 1.8-.35zm3.8 2.6c.6.4.76 1.2.36 1.8-.4.6-1.23.76-1.82.35-.6-.4-.75-1.2-.34-1.8.4-.6 1.22-.76 1.8-.35zm3.83 2.6c.58.4.74 1.2.34 1.8-.42.6-1.22.75-1.82.35-.6-.4-.75-1.22-.34-1.82.4-.6 1.28-.75 1.88-.33zm-4.93-9.13c.58.4.74 1.2.32 1.8-.4.6-1.2.76-1.8.36s-.76-1.23-.35-1.82c.4-.6 1.22-.74 1.82-.34zm3.8 2.58c.6.42.74 1.23.34 1.82-.4.6-1.23.75-1.82.35-.6-.4-.75-1.22-.34-1.8.4-.6 1.22-.76 1.8-.36zm3.8 2.6c.6.42.76 1.23.35 1.82-.4.6-1.22.75-1.82.35-.6-.4-.75-1.22-.34-1.8.4-.6 1.2-.76 1.8-.36zm-4.78-9.35c.6.4.75 1.23.35 1.8-.4.6-1.22.76-1.8.36-.6-.4-.76-1.2-.36-1.8s1.27-.7 1.87-.3zm3.8 2.6c.6.4.75 1.22.35 1.8-.4.6-1.2.76-1.8.36-.6-.4-.76-1.2-.36-1.8.47-.6 1.28-.7 1.88-.3zm3.82 2.6c.6.4.75 1.22.34 1.8-.4.6-1.2.76-1.8.36-.6-.4-.76-1.2-.35-1.8.4-.6 1.2-.7 1.8-.3z"/><path fill="#fff" d="M1170.67 751.23l-137.77-26.85 36.26-186.14 137.78 26.84z"/><path fill="#313C46" d="M1030.64 725.9l.37-1.88 36.7-188.04 141.55 27.57-.35 1.9-36.65 188.04-141.55-27.6zm40.05-185.4l-35.6 182.35 134 26.1 35.53-182.34-133.98-26.1z"/><path fill="#fff" d="M1120.17 792.1l-106.65-91.25 123.27-144.1 106.6 91.23z"/><path fill="#313C46" d="M1010.8 701.06l1.25-1.46L1136.58 554l1.46 1.27 108.13 92.5-1.26 1.47-124.5 145.58-1.43-1.27-108.13-92.5zm126.2-141.6l-120.76 141.18 103.72 88.72 120.76-141.16L1137 559.47z"/><path fill="#fff" d="M483.03 547l-153.4-63.82c-1.18-.48-2.53.07-3.02 1.25l-84.9 204.14c-.5 1.2.1 2.53 1.28 3.02l153.4 63.8c1.17.5 2.52-.1 3.02-1.3L484.27 550c.5-1.16-.08-2.5-1.25-3z"/><path fill="#313C46" d="M483.67 545.47l-153.4-63.83c-1.98-.8-4.37.2-5.2 2.15l-4.1 9.8-6.94-2.87c-.66-.28-1.25-.34-1.34-.15l-.4.95c-.1.2.4.58 1 .85l6.93 2.9-1.17 2.86-6.94-2.9c-.66-.27-1.26-.33-1.34-.14l-.4.96c-.1.2.4.58 1.04.85l6.94 2.9-5.18 12.44-6.93-2.88c-.65-.3-1.25-.35-1.33-.16l-.2.47-.2.45c-.08.2.4.58 1.05.86l6.93 2.9-1.18 2.85-6.96-2.9c-.67-.26-1.27-.33-1.35-.13l-.4.97c-.06.2.4.56 1.07.84l6.95 2.9-3.82 9.15-6.87-2.86c-.64-.28-1.25-.35-1.3-.16l-.4.94c-.1.2.4.58 1.03.85l6.86 2.86-1.2 2.83-6.85-2.87c-.65-.27-1.25-.33-1.34-.14l-.2.48-.2.48c-.1.2.4.6 1.04.86l6.88 2.86-5.18 12.43-6.87-2.82c-.66-.26-1.26-.33-1.34-.14l-.2.5-.2.47c-.1.2.4.56 1.04.84l6.86 2.87-1.17 2.83-6.9-2.86c-.66-.26-1.26-.32-1.34-.13l-.2.47-.2.47c-.07.2.4.58 1.05.86l6.86 2.85-4.84 11.64-7-2.92c-.65-.26-1.25-.32-1.33-.13l-.4.93c-.1.2.4.57 1.04.84l7 2.9-1.18 2.85-7-2.94c-.67-.28-1.26-.34-1.34-.15l-.2.5-.2.48c-.07.2.4.57 1.06.84l7 2.93-5.04 12.13-6.86-2.87c-.67-.27-1.27-.33-1.35-.14l-.4.94c-.06.2.4.58 1.08.85l6.88 2.84-1.18 2.83-6.88-2.86c-.68-.27-1.27-.34-1.36-.14l-.2.47-.2.45c-.07.2.4.57 1.06.84l6.86 2.86-5.17 12.44-6.87-2.86c-.66-.27-1.26-.34-1.34-.14l-.2.47-.2.47c-.1.2.4.57 1.03.85l6.87 2.85-1.18 2.83-6.87-2.83c-.67-.27-1.28-.34-1.35-.14l-.4.97c-.07.2.4.55 1.06.84l6.9 2.88-4.83 11.63-7-2.93c-.66-.3-1.26-.36-1.34-.17l-.4.95c-.1.2.4.57 1.04.84l7 2.9-1.18 2.83-7-2.9c-.66-.3-1.26-.36-1.34-.17l-.2.5-.2.45c-.07.2.4.58 1.07.85l7 2.92-4.3 10.35-6.97-2.9c-.65-.26-1.25-.33-1.33-.13l-.38.92c-.1.2.4.57 1.03.84l6.92 2.9-1.2 2.83-6.92-2.9c-.68-.3-1.27-.35-1.35-.16l-.2.48-.2.5c-.1.18.4.56 1.04.84l6.92 2.86-5.16 12.43-6.93-2.9c-.66-.26-1.26-.32-1.34-.14l-.4.96c-.08.2.4.56 1.04.85l6.95 2.86-1.2 2.85-6.94-2.87c-.66-.26-1.26-.33-1.35-.14l-.37.96c-.1.2.4.6 1.04.85l6.93 2.9-4.83 11.62-7.07-2.95c-.66-.27-1.25-.34-1.33-.15l-.4.94c-.08.2.4.58 1.05.85l7.06 2.92-1.15 2.84-7.06-2.95c-.66-.3-1.26-.34-1.34-.15l-.2.48-.2.48c-.08.2.4.58 1.05.86l7.07 2.95-4.36 10.5c-.82 2 .14 4.34 2.16 5.2l153.4 63.82c.48.2.98.3 1.5.3 1.6 0 3.05-.95 3.67-2.43l84.93-204.16c.4-.98.42-2.06 0-3.03-.4-1-1.15-1.76-2.13-2.16zm-.94 3.9L397.8 753.52c-.12.3-.4.4-.6.4l-153.64-63.86c-.33-.14-.5-.52-.35-.85l4.4-10.43 4.4 1.84c.1.77.4 1.5 1.18 1.8 1.1.47 2.33-.05 2.78-1.13.46-1.1-.06-2.33-1.14-2.78-.77-.34-1.5-.06-2.1.45l-4.42-1.83 1.2-2.83 4.4 1.83c.06.76.4 1.5 1.15 1.8 1.1.45 2.35-.06 2.8-1.14s-.06-2.34-1.15-2.8c-.76-.3-1.5-.03-2.1.47l-4.4-1.84 4.82-11.64 4.53 1.9c.07.75.4 1.47 1.16 1.8 1.1.44 2.3-.07 2.77-1.16.45-1.05-.06-2.3-1.15-2.75-.75-.3-1.5-.04-2.1.46l-4.53-1.9 1.16-2.82 4.55 1.9c.05.75.37 1.5 1.14 1.8 1.08.45 2.33-.06 2.78-1.15.47-1.1-.05-2.34-1.13-2.8-.77-.3-1.5-.03-2.1.47l-4.55-1.9 5.17-12.4 4.56 1.9c.06.76.4 1.5 1.15 1.8 1.1.46 2.34-.06 2.8-1.14.44-1.1-.08-2.34-1.16-2.8-.76-.3-1.5-.03-2.1.46l-4.54-1.9 1.2-2.83 4.53 1.9c.08.77.4 1.5 1.16 1.8 1.1.46 2.32-.06 2.8-1.14.42-1.1-.1-2.34-1.18-2.8-.77-.3-1.5-.02-2.1.47l-4.55-1.9 4.3-10.34 4.5 1.85c.03.78.35 1.5 1.12 1.83 1.07.45 2.3-.07 2.77-1.15.42-1.08-.1-2.32-1.17-2.78-.73-.3-1.5-.03-2.1.47l-4.44-1.84 1.16-2.86 4.5 1.88c.06.78.38 1.5 1.14 1.8 1.1.47 2.33-.04 2.8-1.13.43-1.1-.1-2.33-1.17-2.78-.78-.32-1.53-.04-2.1.46l-4.5-1.87 4.84-11.62 4.6 1.93c.07.76.4 1.5 1.15 1.8 1.1.45 2.3-.06 2.76-1.15.47-1.05-.05-2.3-1.13-2.74-.77-.32-1.5-.04-2.1.46l-4.6-1.9 1.17-2.84 4.6 1.9c.08.78.4 1.5 1.17 1.82 1.07.46 2.32-.06 2.77-1.14.45-1.08-.06-2.34-1.15-2.78-.77-.3-1.5-.04-2.1.46l-4.6-1.9 5.17-12.43 4.6 1.9c.06.76.4 1.5 1.14 1.8 1.08.45 2.33-.06 2.78-1.15.46-1.07-.05-2.32-1.14-2.77-.77-.32-1.5-.03-2.1.46l-4.6-1.9 1.17-2.86 4.6 1.9c.07.77.4 1.5 1.16 1.8 1.07.46 2.3-.05 2.77-1.13.46-1.06-.06-2.32-1.14-2.76-.76-.35-1.5-.06-2.1.43l-4.6-1.9 5.04-12.14 4.48 1.85c.07.77.4 1.5 1.15 1.8 1.1.46 2.32-.06 2.77-1.14.47-1.07-.05-2.32-1.13-2.76-.76-.34-1.5-.06-2.1.43l-4.48-1.88 1.2-2.84 4.45 1.86c.08.77.4 1.5 1.17 1.8 1.1.47 2.33-.05 2.78-1.13.45-1.1-.06-2.35-1.15-2.8-.77-.3-1.5-.04-2.1.46l-4.48-1.86 4.83-11.6 4.6 1.9c.06.77.4 1.5 1.15 1.8 1.1.47 2.34-.05 2.8-1.13.44-1.06-.07-2.3-1.16-2.76-.76-.32-1.5-.04-2.1.46l-4.6-1.93 1.2-2.84 4.6 1.9c.05.77.37 1.5 1.14 1.82 1.06.44 2.3-.08 2.76-1.16.45-1.07-.06-2.32-1.15-2.77-.78-.33-1.5-.04-2.1.45l-4.6-1.9 5.15-12.44 4.6 1.9c.07.8.4 1.5 1.16 1.8 1.1.5 2.34-.03 2.8-1.1.46-1.1-.05-2.34-1.14-2.78-.76-.32-1.5-.03-2.1.46l-4.6-1.9 1.2-2.84 4.6 1.9c.05.77.37 1.5 1.14 1.8 1.1.46 2.35-.05 2.8-1.13.45-1.1-.07-2.33-1.15-2.8-.76-.3-1.5-.02-2.1.48l-4.6-1.92 3.8-9.16 4.55 1.9c.07.75.4 1.5 1.15 1.8 1.1.45 2.33-.07 2.78-1.15.45-1.08-.06-2.34-1.14-2.78-.8-.32-1.55-.04-2.1.47l-4.58-1.9 1.2-2.8 4.53 1.87c.06.78.4 1.5 1.15 1.8 1.1.47 2.34-.05 2.8-1.13.45-1.08-.06-2.33-1.15-2.78-.75-.3-1.5-.04-2.1.46l-4.52-1.9 5.17-12.44 4.55 1.88c.06.77.4 1.5 1.15 1.8 1.07.47 2.32-.05 2.77-1.13.46-1.1-.05-2.33-1.14-2.77-.75-.32-1.5-.04-2.08.45l-4.55-1.88 1.2-2.84 4.53 1.9c.06.77.38 1.5 1.15 1.8 1.1.47 2.34-.05 2.8-1.13.44-1.1-.08-2.33-1.16-2.78-.76-.33-1.5-.05-2.1.45L324 495l4.1-9.86c.1-.26.33-.36.66-.36.06 0 .12 0 .2 0l153.4 63.83c.2.1.3.3.34.4.03.08.08.26 0 .47z"/><path fill="#fff" d="M1201.94 353.2l-98.08 55.35 89.96 44.82z"/><path fill="#313C46" d="M1193.82 454.65c-.2 0-.4-.05-.57-.13l-89.95-44.82c-.44-.2-.7-.64-.72-1.1 0-.5.24-.93.66-1.18l98.06-55.35c.42-.23.93-.23 1.32.04.4.3.63.77.6 1.2l-8.12 100.2c-.03.45-.27.8-.65 1-.2.1-.4.2-.63.2zm-87.2-46.17l86.07 42.9 7.7-95.87-93.84 53z"/><path fill="#fff" d="M1193.82 453.37l-8.1 100.17 98.06-55.35z"/><path fill="#313C46" d="M1185.7 554.82c-.23 0-.47-.06-.7-.2-.38-.25-.6-.72-.57-1.18l8.1-100.18c.04-.43.28-.8.66-1 .3-.23.8-.23 1.2-.04l89.9 44.8c.43.22.7.65.72 1.13 0 .48-.24.92-.66 1.16l-98.07 55.4c-.2.1-.4.17-.63.17zm9.25-99.46l-7.76 95.86 93.8-52.97-86.1-42.9z"/><path fill="#fff" d="M1103.86 408.55l81.85 145 18.2-105.83z"/><path fill="#313C46" d="M1185.7 554.82c-.45 0-.88-.24-1.1-.64l-81.86-145c-.26-.47-.2-1.06.15-1.47.3-.4.9-.5 1.4-.3l99.95 39.16c.57.23.9.83.8 1.43l-18.13 105.82c-.1.54-.5.95-1.05 1.05-.1.02-.16.02-.23.02zm-78.93-143.76l78.28 138.7 17.34-101.23-95.68-37.47z"/><g opacity=".75"><path fill="#fff" d="M1202.27 457.57l-13.98 94.5-2.6 1.47 16.4-96.02z"/><path fill="#313C46" d="M1185.7 554.82c-.25 0-.5-.08-.74-.23-.4-.3-.6-.8-.52-1.3l16.45-96c0-.4.3-.78.62-.97.38-.17.8-.18 1.16 0 .5.25.9.84.8 1.4l-13.96 94.5c-.07.4-.3.73-.64.94l-2.6 1.46c-.16.1-.4.16-.6.16z"/></g><g opacity=".75"><path fill="#fff" d="M1283.78 498.2l-81.84-145-22.54 100.5c-1.14 5.07 1.75 10.2 6.7 11.85l97.68 32.63z"/><path fill="#313C46" d="M1283.78 499.47c-.13 0-.28-.02-.4-.07l-97.7-32.64c-5.58-1.86-8.82-7.6-7.54-13.35l22.53-100.5c.12-.5.55-.9 1.07-.93.52-.1 1.06.18 1.32.63l81.84 145c.26.45.2 1.03-.12 1.44-.25.3-.62.48-1 .48zm-81.32-142.74l-21.8 97.24c-1 4.46 1.5 8.9 5.84 10.35l94.52 31.6-78.56-139.2z"/></g><path fill="#fff" d="M1283.78 498.2l-81.84-145-15.63 97.13c-.7 4.68 1.9 9.26 6.3 11.03l91.23 36.82z"/><path fill="#313C46" d="M1283.78 499.47c-.16 0-.33-.03-.48-.1l-91.25-36.8c-4.98-2.03-7.87-7.13-7-12.45l15.6-97.14c.1-.54.52-.96 1.05-1.05.53-.12 1.1.15 1.36.62l81.84 145c.27.48.2 1.07-.15 1.5-.26.27-.6.42-.97.42zm-81.15-142.45l-15.05 93.5c-.66 4.12 1.58 8.1 5.44 9.66l87.83 35.43-78.22-138.53z"/><path fill="#fff" d="M1189.37 357.7l-87.9 70.4 95.98 29.8z"/><path fill="#313C46" d="M1197.45 459.18c-.12 0-.25 0-.37-.06l-96-29.77c-.45-.15-.8-.53-.88-1-.08-.46.1-.95.47-1.24l87.9-70.4c.36-.3.88-.3 1.3-.12.44.2.75.6.8 1.08l8.07 100.2c.03.42-.14.83-.48 1.1-.23.2-.5.28-.8.28zm-93.3-31.58l91.87 28.5-7.74-95.86-84.12 67.36z"/><path fill="#fff" d="M1197.45 457.9l8.1 100.17 87.9-70.4z"/><path fill="#313C46" d="M1205.54 559.36c-.16 0-.35-.03-.5-.1-.44-.2-.75-.6-.78-1.1l-8.1-100.17c-.02-.48.16-.9.5-1.1.32-.3.77-.4 1.18-.28l96 29.77c.45.14.78.52.87 1 .1.45-.03.94-.4 1.23l-87.9 70.4c-.23.2-.5.3-.8.3zm-6.65-99.67l7.7 95.8 84.1-67.37-91.86-28.5z"/><path fill="#fff" d="M1101.46 428.1l104.1 129.97.87-107.37z"/><path fill="#313C46" d="M1205.54 559.36c-.38 0-.75-.18-1-.5l-104.08-129.94c-.34-.42-.37-1.02-.1-1.5.3-.44.82-.68 1.38-.56l104.96 22.6c.6.12 1.02.64 1.02 1.26l-.9 107.36c0 .55-.34 1.03-.86 1.2-.13.06-.27.08-.42.08zm-100.8-129.23l99.54 124.3.85-102.7-100.4-21.6z"/><g opacity=".75"><path fill="#fff" d="M1293.45 487.68L1189.37 357.7l-6.1 102.83c-.3 5.2 3.37 9.8 8.52 10.62l101.6 16.53z"/><path fill="#313C46" d="M1293.45 488.96c-.07 0-.14 0-.2-.02l-101.67-16.5c-5.82-.95-9.94-6.1-9.6-12l6.1-102.8c.04-.54.4-1 .9-1.15.52-.2 1.06 0 1.4.4l104.07 129.9c.33.43.37 1 .1 1.47-.22.4-.65.64-1.1.64zm-103-127.83l-5.9 99.47c-.25 4.56 2.94 8.55 7.44 9.3l98.3 15.96-99.9-124.73z"/></g><path fill="#fff" d="M1293.45 487.68L1189.37 357.7l.2 98.4c0 4.75 3.28 8.85 7.9 9.9l95.98 21.68z"/><path fill="#313C46" d="M1293.45 488.96c-.1 0-.2 0-.28-.03l-95.98-21.68c-5.3-1.18-8.98-5.77-8.98-11.14l-.2-98.33c0-.55.35-1.04.87-1.22.52-.17 1.1 0 1.44.4l104.07 129.98c.35.44.4 1.03.1 1.5-.24.4-.66.6-1.1.6zM1190.67 361.4l.17 94.7c0 4.17 2.85 7.72 6.93 8.64l92.37 20.87-99.47-124.2z"/><path fill="#fff" d="M1167.6 365.92l-71.7 86.83 100.05 9.6z"/><path fill="#313C46" d="M1195.95 463.64c-.04 0-.08 0-.12 0l-100.05-9.6c-.47-.05-.88-.36-1.06-.8-.2-.44-.1-.94.2-1.3l71.7-86.84c.3-.37.78-.53 1.26-.44.46.1.84.44.98.9l28.32 96.42c.12.4.03.86-.24 1.2-.24.3-.6.46-1 .46zm-97.5-11.94l95.73 9.2-27.1-92.3-68.64 83.1z"/><path fill="#fff" d="M1195.95 462.34l28.33 96.43 71.72-86.83z"/><path fill="#313C46" d="M1224.28 560.05c-.08 0-.17 0-.26-.02-.46-.1-.84-.44-.97-.9l-28.34-96.4c-.1-.43 0-.87.3-1.2.28-.33.7-.48 1.1-.46l100.06 9.6c.48.03.9.33 1.08.78.2.43.1.94-.2 1.3l-71.7 86.84c-.24.3-.6.4-1 .4zm-26.56-96.24l27.12 92.3 68.62-83.1-95.74-9.2z"/><path fill="#fff" d="M1095.9 452.75l128.38 106.02-21-105.3z"/><path fill="#313C46" d="M1224.28 560.05c-.3 0-.58-.1-.8-.3l-128.4-106c-.4-.35-.56-.93-.38-1.44.18-.5.66-.8 1.2-.8l107.38.75c.6 0 1.14.44 1.26 1.04l21 105.3c.1.5-.13 1.06-.6 1.34-.2.1-.43.17-.66.17zm-124.76-106l122.8 101.42-20.1-100.7-102.7-.7z"/><path fill="#fff" d="M1296 471.94l-128.4-106.02 20.25 96.28c.98 4.65 5.03 8 9.77 8.07l98.38 1.67z"/><path fill="#313C46" d="M1296 473.23s-.02 0-.03 0l-98.37-1.67c-5.37-.1-9.9-3.82-11-9.08l-20.24-96.3c-.1-.53.12-1.07.6-1.36s1.05-.24 1.48.1l128.37 106.02c.48.36.6.93.4 1.44-.2.5-.63.85-1.2.85zm-126.36-103.98l19.47 92.7c.9 4.07 4.4 6.97 8.6 7.04l94.7 1.6-122.7-101.4z"/><path fill="#FFF8E3" d="M360.62 472.16l12.6 18.35.73-.8h3.2l5.45-5.38-.2-4 .74-.83-19.6-10.55z"/><path fill="#313C46" d="M373.2 491.6s-.04 0-.06 0c-.34 0-.65-.18-.84-.47l-12.6-18.35c-.27-.4-.24-.98.1-1.36l2.92-3.26c.34-.38.9-.47 1.35-.23l19.6 10.54c.3.15.5.44.56.78.06.33-.04.67-.27.93l-.43.48.17 3.56c.02.32-.1.62-.33.84l-5.45 5.36c-.2.2-.47.32-.75.33l-2.72.03-.4.46c-.22.24-.53.37-.84.37zm-11.17-19.34l11.32 16.5c.17-.12.37-.2.58-.2l2.76-.03 4.72-4.7-.18-3.5c-.02-.2.02-.4.1-.57l-17.6-9.47-1.77 1.9zm2.4-4.36l-4.7 5.26-8.46-12.33z"/><path fill="#F59155" d="M506.4 610.06l2.4-2.68 4.5-5.03.3-.3 2.73-3.07 13.5 12.13c2.33 2.1 3.14 5 1.83 6.5l-5.17 5.75c-1.38 1.48-4.3.98-6.6-1.1l-13.5-12.13z"/><path fill="#313C46" d="M524.35 625.25c-1.7 0-3.6-.82-5.18-2.24l-13.52-12.1c-.45-.4-.5-1.1-.08-1.53l9.94-11.08c.27-.24.6-.38.88-.37.27 0 .53.1.74.28l13.5 12.15c1.67 1.5 2.7 3.44 2.8 5.2.07 1.1-.24 2.07-.9 2.8l-5.16 5.76c-.7.8-1.72 1.2-2.95 1.2zm-16.4-15.28l12.7 11.4c1.16 1.04 2.55 1.67 3.7 1.67.4 0 .95-.1 1.3-.48l5.18-5.76c.25-.3.37-.7.34-1.2-.06-1.17-.85-2.57-2.07-3.66l-12.7-11.4-8.45 9.43z"/><path fill="#FFDC74" d="M384.9 486.95c-.06-.07-.12-.1-.2-.18-2.46-2.3-3.63-5.02-2.6-6.17l1.05-1.16 132.77 119.18-2.94 3.27-128.08-115z"/><path fill="#313C46" d="M512.98 603c-.27 0-.53-.1-.74-.28L384.17 487.77l-.23-.2c-3.02-2.8-4.14-6.06-2.66-7.7l1.05-1.17c.4-.46 1.1-.5 1.56-.08L516.6 597.8c.2.2.35.47.36.76.02.3-.08.57-.28.8l-2.94 3.27c-.24.25-.54.37-.84.37zM383.23 481l-.3.34c-.34.37.13 2.4 2.53 4.62L512.9 600.34l1.46-1.63L383.23 481z"/><path fill="#FFDC74" d="M508.38 607L380.32 492.08c-2.6-2.34-3.9-5.12-2.94-6.2l1.26-1.4c.95-1.07 3.73-.15 6.28 2.06.06.06.12.13.2.2l128.06 114.94-4.8 5.34z"/><path fill="#313C46" d="M508.38 608.13c-.27 0-.53-.1-.74-.3L379.58 492.88c-2.75-2.45-4.66-5.9-3.02-7.76l1.26-1.4c.32-.37.94-.8 2-.8 1.64 0 3.8 1.04 5.82 2.78.03.02.18.17.2.2l128.08 114.95c.45.4.5 1.1.08 1.56l-4.8 5.4c-.2.23-.46.37-.82.38zm-128.55-123c-.22 0-.34.05-.36.07l-1.26 1.4c-.2.3.3 2.36 2.9 4.63l127.2 114.23 3.34-3.7-127.25-114.2c-1.98-1.74-3.67-2.44-4.55-2.44z"/><path fill="#FFDC74" d="M373.2 490.52l.63-.7c1-1.1 3.9-.1 6.5 2.25L508.37 607l-2.4 2.7L373.2 490.5z"/><path fill="#313C46" d="M505.98 610.8c-.26 0-.53-.1-.74-.3L372.47 491.34c-.22-.2-.36-.47-.37-.76 0-.3.08-.6.28-.8l.63-.7c.4-.36 1-.8 2.08-.8 1.68 0 4 1.12 6.03 2.95L509.13 606.2c.2.2.34.47.36.75 0 .3-.1.6-.3.8l-2.4 2.67c-.2.25-.55.38-.85.38zM374.84 490.5L505.9 608.13l.93-1.04-127.25-114.27c-1.85-1.65-3.62-2.4-4.55-2.4-.07 0-.14 0-.2.02z"/><path fill="#fff" d="M635.3 562.1c.2 0 .4 0 .6-.03l-.06-13.6c-.2 0-.4-.02-.6-.02-.2 0-.4 0-.6.03l.06 13.6c.2 0 .4.02.6.02z"/><path fill="#313C46" d="M636.6 562.73l-.65.05c-.22.02-.44.03-.65.04-.23 0-.44-.02-.66-.03l-.66-.1-.05-14.9.65-.08c.22-.02.44-.03.66-.04.22 0 .44.02.65.03l.6.06.05 14.9z"/><path fill="#673ab7" d="M659.9 587.46l-18.24-46.27c-.53-1.4-2.05-2-3.4-1.5l-80.6 31.8c-1.34.5-2 2-1.47 3.33l18.2 46.28c.5 1.35 2.02 2 3.4 1.47l80.6-31.76c1.32-.53 2-2.05 1.5-3.4z"/><path fill="#313C46" d="M658.85 591.92l-80.6 31.77c-1.94.7-4.13-.2-4.9-2.18l-18.23-46.27c-.75-1.94.2-4.13 2.12-4.9l80.6-31.76c1.93-.76 4.12.2 4.88 2.1l18.24 46.3c.76 1.93-.2 4.1-2.12 4.87zm-100.77-19.37c-.76.3-1.13 1.15-.83 1.9l18.24 46.28c.3.76 1.1 1.13 1.9.83L658 589.8c.76-.3 1.13-1.16.83-1.92L640.6 541.6c-.3-.74-1.16-1.12-1.92-.83l-80.6 31.78z"/><path fill="#fff" d="M635.3 562.1c.2 0 .4 0 .6-.03l-.06-13.6c-.2 0-.4-.02-.6-.02-.2 0-.4 0-.6.03l.06 13.6c.2 0 .4.02.6.02zm12.92 3.23c-.28-.7-1.1-1.07-1.8-.78l-76.98 30.33c-.72.3-1.07 1.1-.8 1.82.3.7 1.1 1.07 1.82.78l76.98-30.34c.72-.3 1.07-1.1.78-1.8z"/><path fill="#313C46" d="M647.7 567.8l-76.98 30.34c-1.08.44-2.3-.1-2.73-1.18-.5-1.08.1-2.3 1.13-2.73l76.97-30.35c1.1-.43 2.3.1 2.75 1.2.42 1.07-.12 2.3-1.2 2.72zm-78 27.75c-.35.14-.53.54-.4.88.15.36.55.53.9.4l76.98-30.35c.35-.14.52-.54.38-.9-.14-.34-.53-.5-.88-.38l-76.98 30.35zm68.33-33.25c-.67.24-1.36.42-2.08.48l-.78.07-.05-15.15.78.06c3.86.33 6.9 3.6 6.9 7.5.02 3.12-1.86 5.88-4.77 7.03zm-1.44-1.06c2.8-.6 4.8-3.13 4.72-6 0-2.86-2.07-5.34-4.82-5.94l.05 11.94z"/><path fill="#fff" d="M642.1 555.25c-.02-3.57-2.78-6.48-6.26-6.77l.05 13.6c3.43-.33 6.2-3.26 6.2-6.83z"/><path fill="#313C46" d="M635.4 562.85l-.76-.06c-3.92-.4-6.9-3.6-6.9-7.5-.02-3.18 1.85-5.9 4.76-7.08.66-.26 1.37-.43 2.08-.5l.78-.07.05 15.14zm-2.38-13.25c-2.35.93-3.87 3.16-3.87 5.7 0 2.92 2.04 5.36 4.83 5.95l-.04-11.94c-.32.1-.62.2-.92.3zm-8.17 17.08l-11.36-10 .5-.55c.7-.67 1.53-1.2 2.44-1.55 2.63-1.05 5.6-.52 7.74 1.35 2.9 2.57 3.4 7 1.1 10.12l-.5.63zm-9.2-10.02l8.94 7.9c1.3-2.47.8-5.66-1.3-7.56-2.18-1.87-5.4-2-7.7-.34zM622 568.6c-2.63 1.04-5.6.52-7.73-1.36-2.9-2.56-3.38-7-1.08-10.12l.4-.63 11.36 10-.56.5c-.7.66-1.52 1.2-2.43 1.54zm-8.1-9.98c-1.35 2.47-.85 5.64 1.3 7.55 1.74 1.52 4.15 1.95 6.3 1.1.5-.2.94-.45 1.37-.76l-8.96-7.83z"/><path fill="#fff" d="M624.37 566.1c.14-.15.26-.3.37-.46l-10.2-9c-.13.15-.27.28-.4.43-.13.15-.26.3-.38.46l10.2 9c.14-.14.28-.28.4-.43z"/><path fill="#313C46" d="M623.97 567.5l-11.16-9.85.4-.53c.17-.17.3-.35.4-.5.2-.2.3-.34.5-.48l.48-.47 11.18 9.86-.38.52c-.13.18-.26.36-.4.52-.16.17-.32.32-.47.47l-.5.45zm-17.87 7.38c-.67.26-1.37.42-2.08.5l-.78.05-.05-15.14h.7c3.94.33 6.9 3.55 6.9 7.5.03 3.12-1.84 5.9-4.75 7.03zm-1.44-1.06c2.82-.6 4.8-3.12 4.78-5.98 0-2.88-2.07-5.36-4.82-5.94l.04 11.92zm-1.18 1.6l-.77-.05c-3.9-.32-6.9-3.54-6.9-7.5 0-3.1 1.9-5.87 4.8-7 .7-.28 1.4-.45 2.1-.5l.78-.08.05 15.1zm-2.4-13.24c-2.35.93-3.86 3.17-3.85 5.7 0 2.93 2.03 5.37 4.82 5.95L602 561.9c-.3.07-.6.16-.9.28z"/><path fill="#fff" d="M603.36 574.68c.2 0 .4 0 .6-.03l-.06-13.58c-.2-.02-.4-.03-.6-.03-.2 0-.4.02-.6.03l.07 13.6c.2 0 .4 0 .6 0z"/><path fill="#313C46" d="M604.67 575.3l-.65.07c-.22.02-.44.03-.66.03-.22 0-.44 0-.65-.03l-.6-.05-.05-14.9.66-.06c.2-.02.43-.03.66-.03s.45 0 .66.03l.68.05.05 14.9zm-12.44 4.24l-11.36-10.02.57-.53c.7-.7 1.52-1.2 2.43-1.6 2.65-1.05 5.6-.54 7.74 1.34 2.97 2.55 3.4 7 1.1 10.1l-.42.64zm-9.2-10.02l8.94 7.9c1.36-2.46.86-5.65-1.3-7.56-2.12-1.88-5.36-2-7.65-.34zm6.37 11.93c-2.65 1.05-5.62.53-7.76-1.35-2.9-2.56-3.37-7-1.07-10.12l.46-.63 11.36 10.02-.6.53c-.7.67-1.55 1.2-2.45 1.55zm-8.1-9.97c-1.37 2.46-.86 5.64 1.3 7.54 1.7 1.53 4.12 1.96 6.27 1.1.5-.2.95-.44 1.37-.75l-8.95-7.9z"/><path fill="#fff" d="M591.75 578.96c.13-.15.25-.3.37-.46l-10.2-9c-.13.15-.28.3-.4.44-.14.14-.26.3-.38.45l10.2 9c.14-.2.28-.3.4-.5z"/><path fill="#313C46" d="M591.35 580.35l-11.16-9.85.32-.52c.13-.17.26-.34.4-.52.15-.16.3-.32.46-.46l.5-.47 11.16 9.86-.4.5c-.12.2-.26.32-.4.5-.15.15-.3.3-.46.45l-.46.44zm-15.28 5.55l-11.36-10 .6-.54c.7-.67 1.5-1.2 2.4-1.56 2.7-1.04 5.67-.5 7.8 1.36 2.9 2.57 3.38 7 1.1 10.12l-.5.63zm-9.2-10l8.94 7.88c1.4-2.46.9-5.65-1.3-7.55-2.1-1.87-5.3-2-7.6-.34zm6.36 11.92c-2.65 1.05-5.62.53-7.75-1.35-2.9-2.56-3.38-7-1.07-10.12l.5-.63 11.38 10-.57.56c-.7.66-1.52 1.2-2.43 1.54zm-8.1-9.97c-1.36 2.47-.86 5.64 1.3 7.55 1.72 1.52 4.13 1.95 6.28 1.1.5-.2 1-.44 1.4-.76l-8.92-7.9z"/><path fill="#fff" d="M575.6 585.33c.12-.15.24-.3.36-.47l-10.2-8.98c-.14.14-.28.27-.4.42-.14.15-.26.3-.38.47l10.2 9c.14-.15.28-.3.4-.44z"/><path fill="#313C46" d="M575.18 586.72l-11.16-9.84.4-.53c.1-.18.25-.35.4-.5.14-.2.3-.34.45-.5l.47-.44 11.18 9.9-.4.5c-.1.2-.25.37-.4.5-.14.2-.3.36-.46.5l-.48.46zm-.15 25.52l-.4-.66c-2.03-3.3-1.18-7.7 1.94-10 .53-.38 1.1-.7 1.72-.95 2.9-1.15 6.3-.33 8.4 2.03l.5.6-12.2 8.98zm3.78-10.28c-.43.2-.9.46-1.33.77-2.32 1.7-3.1 4.84-1.95 7.4l9.6-7.07c-1.7-1.5-4.12-1.94-6.26-1.1zm5 12.7c-2.9 1.16-6.3.35-8.4-2.03l-.5-.58 12.2-9 .4.68c2.04 3.3 1.18 7.67-1.94 9.98-.53.4-1.1.78-1.7 1zm-6.73-2.42c2.1 1.84 5.34 2.03 7.65.32 2.3-1.7 3.1-4.84 1.94-7.4l-9.6 7.08z"/><path fill="#fff" d="M586.53 603.6c-.1-.17-.24-.32-.37-.47l-10.94 8.07c.1.17.22.35.34.5.1.16.24.3.37.46l10.93-8.07c-.1-.2-.2-.4-.33-.5z"/><path fill="#313C46" d="M575.83 613.12l-.43-.48c-.14-.17-.28-.33-.4-.5-.15-.2-.27-.38-.38-.56l-.34-.56 11.98-8.84.44.48c.14.17.27.33.4.5.14.2.26.37.37.57l.34.55-11.92 8.84zm17.87-5l-.66-.4c-3.28-2.08-4.46-6.4-2.68-9.84 1.73-3.37 6.07-4.95 9.55-3.5l.8.28-6.95 13.46zm1.1-12.47c-1.37.55-2.5 1.57-3.17 2.88-1.32 2.57-.63 5.7 1.53 7.5l5.47-10.6c-1.26-.33-2.6-.26-3.82.22zm5.03 12.7c-1.82.72-3.82.7-5.63-.04l-.7-.23 6.93-13.47.65.4c3.33 2.1 4.48 6.3 2.68 9.8-.84 1.64-2.24 2.9-3.93 3.57zm-4.34-1.1c1.2.33 2.52.25 3.8-.24 1.33-.5 2.5-1.5 3.2-2.8 1.3-2.6.6-5.7-1.6-7.5l-5.46 10.6z"/><path fill="#fff" d="M600.2 595.27c-.2-.1-.37-.17-.55-.24l-6.24 12.08c.2.1.4.2.58.3.18.1.36.2.54.3l6.23-12.1c-.15-.1-.33-.2-.5-.3z"/><path fill="#313C46" d="M594.8 608.55l-.6-.24c-.2-.02-.4-.1-.6-.2-.2-.1-.38-.23-.56-.34l-.56-.33 6.83-13.25.67.25c.2.06.4.15.6.25.2.1.37.2.57.34l.54.33-6.82 13.23zm20.94-6.48c-2.7 1.06-5.7.5-7.83-1.42-2.8-2.6-3.22-7.06-.9-10.15l.5-.6 11.2 10.15-.56.54c-.7.6-1.5 1.1-2.35 1.42zm-8.06-10.05c-1.4 2.44-.94 5.64 1.2 7.57 1.73 1.5 4.16 2 6.34 1.1.46-.2.9-.4 1.3-.7l-8.84-8zm10.82 8.22l-11.2-10.18.56-.53c.7-.63 1.48-1.13 2.35-1.47 2.7-1.07 5.7-.52 7.9 1.42 2.86 2.6 3.27 7.05.93 10.14l-.47.62zm-9.06-10.15l8.83 8c1.4-2.5.94-5.68-1.2-7.6-2.1-1.9-5.34-2.13-7.63-.46z"/><path fill="#fff" d="M607.92 590.47c-.13.16-.25.3-.37.47l10.06 9.13c.2-.14.3-.28.48-.42.14-.15.26-.3.38-.47l-10.06-9.12c-.15.13-.3.27-.43.4z"/><path fill="#313C46" d="M617.62 601.03l-11.03-10 .32-.52c.14-.12.27-.3.42-.5.14-.1.3-.3.46-.42l.5-.44 11.04 10-.4.54c-.14.17-.27.33-.42.5-.14.16-.3.3-.46.46l-.48.42zm19.63-12.68l-15.13.5.04-.78c.16-2.94 2.02-5.53 4.75-6.6.87-.32 1.7-.5 2.58-.52 3.88-.13 7.27 2.78 7.73 6.62l.1.78zm-13.58-1l11.93-.38c-.7-2.72-3.24-4.7-6.12-4.6-2.85.08-5.3 2.27-5.8 5zm8.77 8.15c-.8.3-1.65.48-2.5.52-3.9.12-7.28-2.8-7.74-6.65l-.1-.77 15.14-.5-.04.78c-.16 2.94-2.03 5.53-4.76 6.6zm-8.68-5.52c.7 2.73 3.24 4.7 6.12 4.6 2.83-.08 5.3-2.26 5.8-5l-11.92.4z"/><path fill="#fff" d="M636.5 588.26c0-.2-.03-.4-.05-.6l-13.58.45c0 .2-.02.4 0 .6 0 .2.02.4.04.6l13.6-.4c0-.2 0-.4 0-.6z"/><path fill="#313C46" d="M637.16 589.54l-14.9.5-.06-.67c-.03-.2-.05-.42-.05-.65 0-.22 0-.44 0-.65l.04-.66 14.83-.43.08.66c.04.2.06.44.07.66 0 .2 0 .42 0 .65l-.06.66zm11.44-.4c-.87.33-1.78.5-2.73.5-3.87 0-7.18-3-7.53-6.85l-.07-.8 15.14-.1v.78c-.23 2.84-2.1 5.35-4.75 6.4zm-8.72-5.7c.62 2.75 3.1 4.8 6 4.8 2.8-.04 5.34-2.15 5.93-4.85h-11.9zm13.52-1.24l-15.13.06.07-.78c.23-2.83 2.1-5.34 4.75-6.4.8-.33 1.73-.5 2.7-.5 3.84-.03 7.2 2.98 7.5 6.84l.06.78zm-13.53-1.38l11.93-.05c-.6-2.74-3.1-4.78-5.98-4.77-2.83 0-5.36 2.12-5.95 4.82z"/><path fill="#fff" d="M639.02 582.13c0 .2 0 .4.03.6l13.6-.06c0-.2.02-.4.02-.6 0-.2-.02-.4-.04-.58h-13.58c-.02.2-.03.4-.03.6z"/><path fill="#313C46" d="M653.3 583.4l-14.9.04-.06-.63c-.02-.2-.03-.4-.04-.6 0-.23.02-.46.03-.67l.06-.66 14.9-.06v.67c0 .22.03.44.03.66 0 .2 0 .4-.03.63l-.04.66z"/><path fill="#fff" d="M628.44 555.3c.02 3.57 2.77 6.48 6.26 6.77l-.05-13.6c-3.5.33-6.22 3.26-6.2 6.83zm-4.67 1.18c-2.68-2.37-6.68-2.25-9.22.17l10.2 9c2.07-2.83 1.7-6.82-.98-9.17zm-9.03 10.22c2.68 2.37 6.68 2.25 9.2-.17l-10.18-9c-2.08 2.83-1.7 6.82.98 9.17zm-4.58 1.14c0-3.57-2.77-6.48-6.26-6.77l.06 13.58c3.48-.3 6.2-3.25 6.2-6.8zm-13.66.04c.02 3.58 2.78 6.5 6.27 6.78l-.06-13.6c-3.42.32-6.2 3.25-6.2 6.82zm-5.36 1.45c-2.67-2.37-6.68-2.24-9.2.17l10.18 9c2.08-2.83 1.7-6.8-.98-9.17zm-9.02 10.24c2.68 2.35 6.68 2.23 9.22-.18l-10.2-9c-2.08 2.8-1.7 6.8.98 9.12zm-7.14-3.87c-2.67-2.36-6.68-2.24-9.2.18l10.18 8.98c2.08-2.8 1.7-6.8-.98-9.17zm-9.02 10.23c2.67 2.37 6.67 2.25 9.2-.17l-10.18-9c-2.08 2.83-1.7 6.8.98 9.17zM577 602.16c-2.88 2.12-3.6 6.06-1.78 9.04l10.94-8.07c-2.32-2.62-6.3-3.1-9.16-.97zm8.1 10.97c2.87-2.1 3.6-6.06 1.76-9.04l-10.93 8c2.32 2.64 6.3 3.1 9.17 1zm5.9-14.93c-1.64 3.18-.55 7.03 2.4 8.9l6.25-12.07c-3.25-1.34-7.02 0-8.65 3.18zm12.13 6.27c1.63-3.17.54-7.03-2.43-8.9l-6.23 12.08c3.24 1.33 7.02-.02 8.65-3.18zm5.27-4.37c2.64 2.4 6.64 2.35 9.2-.04l-10.05-9.12c-2.12 2.78-1.8 6.78.84 9.17zm9.16-10.1c-2.64-2.4-6.64-2.33-9.2.06l10.05 9.12c2.18-2.78 1.8-6.77-.8-9.17zm11.9-8.35c-3.57.12-6.4 2.96-6.6 6.46l13.6-.4c-.42-3.5-3.44-6.1-7-6zm.44 13.65c3.57-.12 6.4-2.95 6.6-6.44l-13.6.43c.43 3.42 3.44 6.1 7 6zm16-6.37c3.56-.03 6.45-2.8 6.72-6.3l-13.6.15c.35 3.5 3.3 6.2 6.87 6.15zm-.08-13.65c-3.57.02-6.48 2.77-6.77 6.26l13.58-.05c-.3-3.5-3.24-6.28-6.8-6.27zm359.22 31.48c.34.13.7.24 1.05.35l9.2-23.5c-.4-.17-.7-.33-1.08-.46-.35-.14-.7-.24-1.05-.36l-9.2 23.57c.34.18.67.34 1.02.47z"/><path fill="#313C46" d="M1006.88 608.73l-1.17-.35c-.33-.1-.7-.23-1.1-.38-.37-.15-.75-.32-1.1-.5l-1.1-.54 10.07-25.84 1.18.34c.4.1.78.24 1.17.4.37.14.74.3 1.1.5l1.1.52-10.1 25.85z"/><path fill="#fff" d="M1005.04 606.76c.34.13.7.24 1.05.35l9.2-23.5c-.4-.17-.7-.33-1.08-.46-.35-.14-.7-.24-1.05-.36l-9.2 23.57c.34.18.67.34 1.02.47z"/><path fill="#313C46" d="M1009.66 608.96c-1.33 0-2.67-.2-3.94-.57l-1.4-.47 10.26-26.27 1.3.64c6.46 3.2 9.47 10.97 6.84 17.68-2.1 5.43-7.24 8.94-13.06 8.94zm-1.77-2.8c5.2.86 10.4-2.15 12.3-7.1 1.95-5 .06-10.7-4.3-13.6l-8.06 20.7z"/><path fill="#fff" d="M1021.5 599.54c2.4-6.18-.37-13.1-6.2-16l-9.2 23.58c6.24 1.83 12.98-1.4 15.4-7.58z"/><path fill="#313C46" d="M1004.73 608.14l-1.3-.64c-6.57-3.25-9.5-10.85-6.85-17.67 2.12-5.44 7.25-8.94 13.07-8.94 1.34 0 2.66.2 3.95.5l1.38.4-10.25 26.3zm4.92-24.6c-4.72 0-8.87 2.86-10.6 7.25-1.97 5.02-.13 10.62 4.3 13.6l8.07-20.7c-.6-.1-1.17-.2-1.77-.2zm-59.35 54.93l-12.84-25.1 1.35-.55c1.7-.7 3.5-1.03 5.3-1.03 5.3 0 10.1 2.9 12.5 7.6 3.3 6.4 1.1 14.42-5.02 18.3l-1.23.72zm-9.12-23.66l10.12 19.8c4.04-3.3 5.34-9.2 2.9-13.92-2.4-4.68-7.95-7.14-13.02-5.82zm2.9 25.08c-5.3 0-10.1-2.92-12.5-7.64-3.28-6.4-1.07-14.43 5.05-18.26l1.23-.77 12.83 25.1-1.4.55c-1.68.7-3.46 1.05-5.27 1.05zm-7.23-22.8c-4.04 3.33-5.34 9.2-2.9 13.95 1.94 3.8 5.83 6.2 10.13 6.2.98 0 1.95-.14 2.9-.4l-10.13-19.76z"/><path fill="#fff" d="M949.86 637.13c.34-.17.65-.36.97-.56l-11.53-22.52c-.34.14-.67.3-1 .46-.34.2-.66.4-.97.6l11.52 22.5c.34-.12.68-.3 1-.43z"/><path fill="#313C46" d="M948.22 639.26l-12.6-24.67 1-.7c.35-.2.7-.4 1.08-.6.35-.2.72-.38 1.1-.5l1.13-.5 12.63 24.7-1.02.65c-.35.2-.7.4-1.07.6-.36.2-.74.36-1.12.5l-1.13.45zm66.4 1.12l-26.55-9.47.6-1.3c2.28-5 7.28-8.2 12.75-8.2 1.6 0 3.2.3 4.72.87 6.8 2.43 10.68 9.78 8.85 16.76l-.4 1.4zm-22.85-10.98l20.94 7.47c.7-5.18-2.4-10.34-7.4-12.13-5-1.8-10.73.28-13.5 4.66zm9.65 20.07c-1.6 0-3.2-.27-4.72-.8-6.8-2.44-10.68-9.8-8.85-16.8l.37-1.38 26.55 9.4-.6 1.33c-2.27 5-7.28 8.2-12.75 8.2zM990.15 634c-.67 5.2 2.4 10.35 7.44 12.14 4.9 1.8 10.7-.3 13.4-4.67L990.1 634z"/><path fill="#fff" d="M1013.4 639.7c.12-.35.22-.7.3-1.05l-23.82-8.5c-.16.32-.3.67-.42 1-.13.36-.23.72-.32 1.07l23.82 8.5c.15-.32.3-.66.42-1z"/><path fill="#313C46" d="M1013.65 642.4l-26.1-9.34.3-1.18c.1-.4.2-.77.35-1.16.14-.4.3-.77.47-1.13l.5-1.17 26.14 9.33-.3 1.2c-.1.37-.2.77-.3 1.16-.15.38-.3.76-.5 1.12l-.5 1.1z"/><path fill="#fff" d="M997.8 590.3c-2.4 6.2.38 13.12 6.23 16l9.2-23.56c-6.27-1.84-13 1.38-15.42 7.57zm-42.4 29.73c-3.04-5.9-10.06-8.43-16.1-5.98l11.53 22.52c5.52-3.46 7.58-10.62 4.56-16.54zm-22.63 11.57c3.02 5.9 10.05 8.44 16.08 5.98l-11.52-22.52c-5.52 3.46-7.6 10.63-4.56 16.55zm72.93-8.13c-6.27-2.23-13.1.74-15.82 6.67l23.83 8.5c1.7-6.3-1.7-12.93-8-15.17zm-8.55 23.93c6.26 2.23 13.1-.74 15.8-6.67l-23.8-8.5c-1.67 6.3 1.75 12.94 8 15.17z"/><path fill="#313C46" d="M974.58 556.75l9.24-26.64 1.33.6c5 2.28 8.24 7.2 8.3 12.7 0 1.6-.27 3.2-.8 4.76-2.36 6.82-9.68 10.77-16.68 9l-1.4-.35zm10.78-22.95l-7.3 21c5.2.6 10.33-2.5 12.08-7.56 1.77-5-.38-10.74-4.78-13.44zm-20 9.82c0-1.6.26-3.2.78-4.73 2.38-6.88 9.7-10.8 16.7-9l1.4.3-9.24 26.7-1.33-.6c-5-2.25-8.25-7.23-8.3-12.7zm15.4-11.4c-5.2-.63-10.35 2.48-12.1 7.54-1.75 4.98.4 10.74 4.8 13.43l7.3-21z"/><path fill="#fff" d="M975.24 555.5c.35.12.7.23 1.06.3l8.3-23.9c-.33-.14-.68-.28-1.02-.4-.35-.12-.7-.23-1.07-.32l-8.3 23.9c.4.15.7.3 1.1.42z"/><path fill="#313C46" d="M972.56 555.8l9.1-26.2 1.2.3c.37.1.75.2 1.16.34.38.13.77.3 1.13.46l1.1.5-9.1 26.2-1.18-.3c-.4-.1-.8-.2-1.18-.34-.4-.14-.8-.3-1.2-.47l-1.1-.5z"/><path fill="#fff" d="M991.4 547.67c2.2-6.28-.85-13.1-6.8-15.76l-8.3 23.9c6.32 1.67 12.93-1.8 15.1-8.1zm-24-8.34c-2.18 6.27.86 13.1 6.8 15.76l8.3-23.97c-6.3-1.6-12.92 1.88-15.1 8.15z"/><path fill="#673ab7" d="M1172.2 353.63c3.9 1.4 8.27-.66 9.68-4.58 1.4-3.92-.66-8.28-4.58-9.7l-11.47-4.1-5.12 14.26 11.5 4.18z"/><path fill="#313C46" d="M1177.65 338.86c4.18 1.5 6.35 6.16 4.84 10.33-.8 2-2.2 3.6-4.2 4.53-2 .92-4.18 1.03-6.2.3l-12-4.3 5.47-15.24 12.03 4.32zm-16.36 10.38l11.1 4c1.8.65 3.75.56 5.5-.27 1.75-.82 3.07-2.27 3.7-4.08 1.35-3.78-.6-7.9-4.3-9.2l.15-.48-.2.4-11.15-4-4.86 13.56z"/><path fill="#fff" d="M1144.52 335.57c-1.42 3.96.66 8.37 4.62 9.78l11.57 4.16 5.2-14.4-11.54-4.1c-3.95-1.4-8.36.65-9.78 4.62z"/><path fill="#313C46" d="M1166.45 334.84l-5.46 15.23-12-4.3c-4.27-1.53-6.4-6.18-4.9-10.35.7-2.03 2.2-3.66 4.12-4.6 1.96-.9 4.16-1.02 6.2-.3l11.98 4.32zm-6 14.1l4.87-13.56-11.16-4c-1.8-.66-3.76-.57-5.5.26-1.75.82-3.07 2.27-3.72 4.08-1.33 3.72.6 7.85 4.32 9.2l11.2 4.02zM186.83 598.4L71.45 484.1c-1.94-1.9-1.95-5.04-.03-6.98L219.28 327.8c1.92-1.93 5.05-1.95 7-.03L341.65 442c1.93 1.92 1.94 5.06.03 7L193.8 598.33c-1.92 1.95-5.06 1.97-7 .05zM76.23 480.6L190.3 593.57l146.57-148.05L222.8 332.57 76.22 480.62z"/><path fill="#fff" d="M189.16 594.3L75.5 481.78c-.78-.77-.8-2.02-.02-2.8l145.66-147.1c.77-.8 2.03-.8 2.8-.04L337.6 444.4c.78.77.8 2.02.02 2.8L191.96 594.3c-.77.78-2.03.78-2.8 0z"/><path fill="#673ab7" d="M265.83 442.74c-10.26 10.36-26.98 10.44-37.34.18-10.4-10.26-10.5-26.97-.2-37.33 10.22-10.4 26.93-10.5 37.3-.2 10.35 10.2 10.44 26.93.2 37.3z"/><path fill="#313C46" d="M247.07 451.6c-7.28 0-14.14-2.82-19.3-7.94-5.22-5.16-8.1-12.04-8.14-19.36-.04-7.33 2.8-14.23 7.94-19.44 5.2-5.25 12.12-8.14 19.5-8.14 7.27 0 14.13 2.82 19.3 7.94 5.2 5.16 8.1 12.04 8.13 19.36.04 7.34-2.78 14.24-7.93 19.45-5.2 5.24-12.12 8.13-19.5 8.13zm0-52.8c-6.82 0-13.22 2.66-18.02 7.52-4.77 4.82-7.38 11.2-7.35 17.97.04 6.7 2.7 13.1 7.52 17.83 4.78 4.74 11.12 7.35 17.85 7.35 6.82 0 13.22-2.67 18.03-7.5 4.76-4.8 7.37-11.2 7.33-18-.04-6.76-2.7-13.12-7.52-17.9-4.72-4.72-11.1-7.33-17.8-7.33zm-19.87 45.43c-11.06-10.95-11.15-28.86-.2-39.93 10.96-11.06 28.87-11.15 39.93-.2 11.06 10.95 11.15 28.87.2 39.92-10.96 11.07-28.86 11.16-39.93.2zm37.15-37.53c-9.62-9.53-25.2-9.45-34.74.18-9.5 9.62-9.4 25.22.2 34.75 9.66 9.54 25.2 9.44 34.78-.2 9.53-9.6 9.46-25.2-.18-34.73z"/><path fill="#fff" d="M262.25 432.53l-7.5-7.4c-.54-.56-.55-1.44 0-2l7.42-7.5c.54-.54.54-1.43 0-1.97l-4.75-4.7c-.54-.54-1.44-.54-1.98.02l-7.42 7.5c-.55.54-1.43.54-1.98 0l-7.5-7.42c-.55-.54-1.44-.53-1.98 0l-4.7 4.75c-.53.6-.53 1.5.02 2l7.5 7.4c.55.6.55 1.5 0 2l-7.42 7.5c-.54.6-.54 1.48 0 2l4.75 4.7c.6.56 1.5.55 2 0l7.4-7.5c.6-.54 1.5-.55 2 0l7.5 7.4c.6.55 1.48.55 2 0l4.7-4.73c.56-.55.56-1.43 0-2z"/><path fill="#313C46" d="M235.42 440.65l-4.73-4.68c-1.3-1.25-1.3-3.3-.1-4.56l7.14-7.2-7.2-7.1c-1.27-1.22-1.28-3.3-.03-4.54l4.7-4.72c1.26-1.26 3.3-1.27 4.57 0l7.2 7.1 7.1-7.2c1.27-1.25 3.32-1.26 4.6 0l4.72 4.7c1.26 1.24 1.3 3.3.02 4.56l-7.12 7.17 7.2 7.14c1.27 1.27 1.28 3.3 0 4.58l-4.66 4.73c-1.26 1.28-3.3 1.3-4.57 0l-7.2-7.1-7.12 7.2c-1.3 1.27-3.3 1.3-4.6 0zm-1.85-6.97l4.12 4.08 7.1-7.2c1.22-1.26 3.3-1.28 4.6-.02l7.13 7.12 4.08-4.13-7.2-7.12c-1.24-1.2-1.26-3.23 0-4.5l7.1-7.2-4.1-4.1-7.1 7.2c-1.27 1.27-3.3 1.28-4.58 0l-7.2-7.1-4.07 4.1 7.2 7.15c1.25 1.26 1.26 3.32 0 4.58l-7.1 7.2z"/><path fill="#fff" d="M249.67 361.9l59.67 59.06-5.78 5.85-59.67-59z"/><path fill="#313C46" d="M303.54 430.57l-63.45-62.82 9.5-9.63 63.43 62.82-9.54 9.63zm-55.9-62.85l55.87 55.3 2.08-2.04-55.86-55.3-2.02 2.04z"/><path fill="#fff" d="M298.77 388.52c2.14-.63 4.2-1.58 5.87-3.28 5.25-5.3 5.2-13.87-.1-19.13-5.3-5.2-13.87-5.2-19.13.1-1.6 1.7-2.6 3.8-3.2 5.9l-4.1-4-8 8.13 24.77 24.5 8.04-8.12-4.1-4.03z"/><path fill="#313C46" d="M292.94 402.6l-24.75-24.52c-1.1-1.03-1.1-2.72-.08-3.78l8.04-8.12c1.03-1.04 2.73-1.05 3.8-.02l1.23 1.23c.64-1.2 1.4-2.2 2.3-3.1 6.3-6.36 16.55-6.4 22.9-.1 6.34 6.3 6.4 16.53.1 22.9-.88.9-1.9 1.63-3.04 2.3l1.23 1.23c1.04 1.03 1.05 2.73.02 3.77l-8.05 8.14c-1.02 1.05-2.72 1.05-3.76.02zm-19.1-26.44l20.96 20.75 4.28-4.3-2.2-2.13c-.66-.67-.93-1.63-.7-2.55.23-.9.93-1.64 1.84-1.9 2.07-.62 3.56-1.45 4.72-2.6 4.2-4.27 4.18-11.15-.07-15.37-4.26-4.2-11.14-4.16-15.36.1-1.1 1.17-1.9 2.66-2.5 4.75-.24.9-1 1.6-1.9 1.85-.9.22-1.9-.03-2.54-.7l-2.2-2.17-4.28 4.33z"/><path fill="#19B0B7" d="M173.54 442.28l-18.7-18.52 18.52-18.7 18.7 18.52-18.52 18.7zm-16.74-18.53l16.73 16.57 16.57-16.73-16.73-16.6-16.57 16.7z"/><path fill="#313C46" d="M173.56 444.86l-21.3-21.1 21.08-21.3 21.3 21.1-21.08 21.3zm-14.17-21.12l14.1 14 14-14.14-14.17-14-14 14.14z"/><path fill="#19B0B7" d="M142.8 473.32l-18.7-18.52 18.52-18.7 18.7 18.5-18.5 18.72zm-16.73-18.52l16.73 16.56 16.57-16.73-16.73-16.57-16.57 16.74z"/><path fill="#313C46" d="M142.82 475.9l-21.3-21.08 21.1-21.3 21.3 21.08-21.1 21.3zm-14.17-21.1l14.13 13.98 14-14.15-14.13-14-14 14.16z"/><path fill="#19B0B7" d="M114.3 502.1l-18.7-18.52 18.54-18.7 18.7 18.52-18.52 18.7zm-16.7-18.53l16.73 16.57 16.58-16.73-16.7-16.52-16.55 16.74z"/><path fill="#313C46" d="M114.33 504.7l-21.3-21.1 21.1-21.32 21.3 21.1-21.1 21.3zm-14.16-21.14l14.13 14 14-14.14-14.15-14-13.98 14.14zm158.98 16.66L196.6 438.3l3.82-3.88 62.55 61.94zm-12.8 12.94l-62.57-61.93 3.83-3.87 62.6 61.94zm-76.65-48.38l62.55 61.94-3.83 3.87-62.55-62zm-12.82 12.94l62.56 61.94-3.82 3.87-62.56-61.95zm-15.32 16.18l62.56 61.94-3.82 3.87-62.56-61.9zm45.9 78.73L124.9 510.7l3.83-3.87 62.55 61.94z"/><path fill="#673ab7" d="M391.9 547.17c-4.88 12.23-18.76 18.17-30.98 13.27-12.22-4.9-18.16-18.77-13.27-31 4.9-12.2 18.76-18.15 30.98-13.26 12.22 4.9 18.17 18.77 13.28 31z"/><path fill="#313C46" d="M369.78 563.2c-3.17 0-6.28-.62-9.24-1.8-6.17-2.47-11-7.18-13.63-13.3-2.6-6.1-2.63-12.86-.2-19.03 3.8-9.5 12.9-15.63 23.1-15.63 3.2 0 6.3.6 9.27 1.78 12.73 5.1 18.95 19.6 13.85 32.33-3.8 9.5-12.86 15.64-23.1 15.64zm0-47.7c-9.37 0-17.68 5.63-21.17 14.34-2.2 5.65-2.13 11.85.27 17.45s6.83 9.9 12.48 12.13c2.74 1.1 5.58 1.64 8.5 1.64 9.36 0 17.7-5.63 21.16-14.34 4.67-11.66-1.03-24.96-12.7-29.64-2.72-1.1-5.56-1.65-8.46-1.65zm-9.48 46.48c-13.04-5.22-19.4-20.08-14.18-33.14 5.22-13.04 20.08-19.42 33.13-14.2 13.05 5.23 19.42 20.1 14.2 33.13-5.23 13.06-20.1 19.44-33.15 14.2zm17.72-44.26c-11.35-4.55-24.3 1-28.83 12.34-4.6 11.36.93 24.3 12.3 28.85 11.35 4.6 24.3-1 28.83-12.3 4.55-11.35-1-24.3-12.36-28.83z"/><path fill="#fff" d="M385.35 539.94l-8.84-3.54c-.6-.26-.9-1-.7-1.63l3.6-8.86c.26-.6-.06-1.32-.7-1.6l-5.6-2.2c-.65-.28-1.4.04-1.65.7l-3.53 8.84c-.25.64-1 .96-1.64.7l-8.83-3.55c-.65-.26-1.4.05-1.64.7l-2.24 5.6c-.25.63.07 1.37.7 1.63l8.86 3.54c.66.26.97 1 .7 1.64l-3.53 8.85c-.25.66.06 1.4.7 1.66l5.6 2.25c.63.23 1.37-.08 1.63-.73l3.54-8.84c.26-.65 1-.96 1.65-.7l8.84 3.53c.64.27 1.37-.05 1.63-.7l2.23-5.6c.26-.64-.06-1.4-.7-1.64z"/><path fill="#313C46" d="M365.9 556.13l-5.6-2.23c-1.5-.6-2.22-2.3-1.62-3.8l3.4-8.5-8.48-3.38c-1.5-.6-2.23-2.3-1.63-3.8l2.23-5.58c.6-1.5 2.3-2.23 3.8-1.62l8.48 3.4 3.4-8.5c.6-1.5 2.3-2.22 3.8-1.62l5.57 2.24c1.5.6 2.23 2.3 1.63 3.8l-3.4 8.47 8.5 3.4c1.48.6 2.2 2.3 1.6 3.8l-2.23 5.6c-.6 1.5-2.3 2.2-3.78 1.6l-8.5-3.4-3.38 8.5c-.67 1.5-2.3 2.28-3.8 1.68zm-4-5.16l4.86 1.94 3.4-8.4c.6-1.5 2.3-2.25 3.8-1.65l8.47 3.4 1.95-4.86-8.48-3.4c-1.5-.6-2.22-2.3-1.63-3.8l3.4-8.5-4.87-1.93-3.4 8.48c-.6 1.5-2.3 2.23-3.8 1.63l-8.47-3.4-1.95 4.87 8.5 3.38c1.48.6 2.2 2.3 1.6 3.8l-3.4 8.5zm834.5-216.62c-1.23 0-2.44-.22-3.6-.67-4.76-1.87-7.37-7.17-5.94-12.07l.3-.93 18.62 7.26-.45.93c-1.66 3.38-5.16 5.55-8.93 5.55zm-7.95-11.2c-.57 3.67 1.5 7.4 5.03 8.77 3.48 1.33 7.6-.02 9.64-3.05l-14.67-5.72zm17.22 5.02l-18.63-7.25.45-.92c1.6-3.37 5.1-5.55 8.9-5.55 1.2 0 2.42.23 3.6.68 4.74 1.86 7.35 7.16 5.9 12.06l-.3.92zm-15.97-8.23l14.67 5.7c.58-3.66-1.5-7.38-5.03-8.76-3.48-1.35-7.6.02-9.64 3.06z"/><path fill="#fff" d="M1188.02 321.13c-.1.25-.17.5-.24.74l16.7 6.52c.12-.3.23-.5.33-.78s.2-.5.3-.74l-16.7-6.5c-.12.22-.23.45-.33.7z"/><path fill="#313C46" d="M1204.94 329.58l-18.3-7.14.22-.82c.08-.28.18-.55.28-.83.1-.3.23-.6.35-.8l.32-.8 18.34 7.1-.25.84c-.1.28-.16.54-.27.8-.1.3-.22.55-.35.8l-.4.78z"/><path fill="#fff" d="M1193.17 332.8c4.4 1.7 9.3-.32 11.3-4.48l-16.75-6.4c-1.27 4.45 1.05 9.2 5.45 10.9zm6.5-16.8c-4.4-1.7-9.3.27-11.33 4.4l16.7 6.53c1.32-4.44-.97-9.22-5.36-10.93z"/></svg>