<svg xmlns="http://www.w3.org/2000/svg" width="120" height="120" viewBox="-10 -10 120 120" enable-background="new -10 -10 120 120"><g stroke="#673ab7" stroke-width="2" stroke-miterlimit="10"><path fill="none" d="M22.3 31.92h49.38V106h-49.4z"/><path fill="#E9EAEB" d="M28 22.42h37.98v9.5h-38zM43.2 90.8h11.38V106h-11.4z"/><path fill="none" d="M31.8 58.5v-9.48h9.5v9.5M31.8 73.7v-9.5h9.5v9.5"/><path fill="none" d="M3.3 58.5h19V106h-19z"/><path fill="#E9EAEB" d="M9 49.02h13.3v9.5H9z"/><path fill="#3b1977" d="M71.82 45.22c-11.46 0-20.76 9.3-20.76 20.75 0 17.9 17.7 20.34 19.2 38.55.05.83.72 1.48 1.56 1.48.83 0 1.5-.65 1.56-1.48 1.5-18.2 19.2-20.63 19.2-38.55 0-11.46-9.3-20.75-20.76-20.75z"/><circle cx="71.678" cy="66.112" r="7.598" fill="#fff"/><path fill="none" d="M-2.4 106h94.97M58.37 9.13h-13.1c-.97-1.9-3.26-3.86-5.92-3.86-.85 0-1.65.2-2.4.5-1.48-3.96-5.3-6.93-9.77-6.93-5.76 0-10.43 6.5-10.44 10.3H1.4m9.5 15.18H-2.4m113.97-5.7h-5.65c-1.32-3.8-4.04-4.74-7.3-4.34-1.44-2.46-4.06-3.97-7.1-3.97-4.52 0-8.2 2.68-8.23 8.38h-7.87M14.7 24.32h3.8m43.68-15.2h3.8m3.8 0h3.8M-6.2 106H-10m106.37 0h7.6m3.8 0h3.8"/></g></svg>