<svg xmlns="http://www.w3.org/2000/svg" width="120" height="120"><circle cx="54.643" cy="68.5" r="41.837" fill="#E9EAEB"/><path fill="#3b1977" d="M57.64 86.54c-1.22-3.5-4.52-5.84-8.23-5.84H37.2V68.5l3.5 3.5s7.55 0 12.2 0c7.97 0 6.97-8.73 6.97-8.73h-12.2l-12.2-12.2H28.5c-3.86 0-6.98 3.12-6.98 6.97V84.2c0 5.76 4.68 10.45 10.46 10.45h15.7l10.45 20.92h9.67L57.64 86.54z"/><path fill="#fff" stroke="#673ab7" stroke-width="2" stroke-miterlimit="10" d="M33.72 45.67c-4.86 0-8.7-3.98-8.7-8.9V33.8c0-4.9 3.84-8.87 8.7-8.87 4.87 0 8.72 3.98 8.72 8.9v2.96c0 4.9-3.85 8.9-8.72 8.9z"/><path fill="none" stroke="#673ab7" stroke-width="2" stroke-miterlimit="10" d="M37.2 72h61.02m-34.86-7h10.46v7m6.98 0v-7h10.46V44.1h-8.73"/><path fill="#fff" stroke="#673ab7" stroke-width="2" stroke-miterlimit="10" d="M80.8 58.04h-5.24v-36.6h5.23c1.9 0 3.43 1.55 3.43 3.48v29.63c0 1.93-1.56 3.5-3.5 3.5z"/><path fill="none" stroke="#673ab7" stroke-width="2" stroke-miterlimit="10" d="M30.24 105.1v10.47m27.9 0L47.66 94.65h-15.7c-5.77 0-10.45-4.7-10.45-10.46V58c0-3.85 3.16-6.97 7-6.97h6.97l12.2 12.2h12.2s1 8.72-6.97 8.72c-4.67 0-12.2 0-12.2 0L30.2 61.52m6.97 6.98v12.2h12.2c3.7 0 7 2.34 8.2 5.84l10.17 29.03m-53.2-61.02v33.13c0 7.7 6.24 13.94 13.94 13.94h15.66M14.56 80.7H28.5l5.22 6.98M101.7 72h3.5m-93.85 42.82H103m1.45 0h7.33m2.55 0H118m-113.17 0H8.5"/><path fill="none" stroke="#BCC0C4" stroke-width="2" stroke-miterlimit="10" d="M102.28 26.85v8.12m4.06-4.07h-8.12"/><circle cx="110.405" cy="11.958" r="4.062" fill="none" stroke="#BCC0C4" stroke-width="2" stroke-miterlimit="10"/><path fill="none" stroke="#BCC0C4" stroke-width="2" stroke-miterlimit="10" d="M58.94 11.65H46.3c-.95-1.83-3.16-3.72-5.73-3.72-.82 0-1.6.2-2.3.48-1.44-3.8-5.12-6.63-9.44-6.63-5.56 0-10.07 6.27-10.08 9.93H3.95m9.15 14.65H.3m16.47 0h3.67m42.16-14.7h3.67m3.67 0h3.66"/></svg>