<svg xmlns="http://www.w3.org/2000/svg" width="120" height="120"><path fill="none" stroke="#673ab7" stroke-width="2" stroke-miterlimit="10" d="M11.35 114.82H103m1.45 0h7.33m2.55 0H118m-113.17 0H8.5"/><path fill="#E9EAEB" d="M39.7 93.85c-3.16 0-5.73-2.57-5.73-5.74V37.58c-11.9 6.03-20.1 18.38-20.1 32.66 0 20.2 16.4 36.6 36.6 36.6 11.18 0 21.2-5.03 27.9-12.93H39.7z"/><path fill="none" stroke="#673ab7" stroke-width="2" stroke-miterlimit="10" d="M66.98 93.85H39.7c-3.16 0-5.73-2.57-5.73-5.74V25c0-3.17 2.57-5.74 5.74-5.74h47.4c3.2 0 5.77 2.57 5.77 5.74v37.3m-31.6 20.1H39.7V30.7h47.37v31.6"/><path fill="#fff" d="M94.25 69.46h-2.87c0-1.62-1.53-2.87-2.87-2.87h-2.8c-.55-.9-1.97-1.5-2.87-1.5h-2.9v-10c0-1.6-1.3-2.87-2.86-2.87S74.2 53.5 74.2 55.1v21.57l-1.92 1.84-3.75-5.8c-2.3-3.16-5.85-1.4-5.85 0 0 0 4.35 13.9 4.97 14.87 1 1.57 5.07 5.1 5.07 6.32 0 1.22 0 5.74 0 5.74H94.2s0-2.37 0-4.3c0-1.94 2.87-4.27 2.87-7.2v-15.8c0-1.6-1.5-2.86-2.86-2.86z"/><path fill="none" stroke="#673ab7" stroke-width="2" stroke-miterlimit="10" d="M72.72 99.6s0-4.52 0-5.74c0-1.23-4.06-4.76-5.07-6.33-.62-.98-4.97-14.87-4.97-14.87 0-1.4 3.5-3.16 5.8 0l3.76 5.8 1.92-1.83V55.1c0-1.58 1.28-2.86 2.87-2.86 1.58 0 2.87 1.28 2.87 2.87v18.7-8.6h2.87c.9 0 2.32.58 2.87 1.45h2.87c1.4 0 2.9 1.25 2.9 2.87h2.9c1.34 0 2.87 1.26 2.87 2.88v15.7c0 2.92-2.87 5.26-2.87 7.2 0 1.92 0 4.3 0 4.3m-8.63-33v7.16m5.74-4.3v5.74"/><path fill="#3b1977" d="M69.85 98.16h27.27v16.18H69.85z"/><path fill="none" stroke="#673ab7" stroke-width="2" stroke-miterlimit="10" d="M97.12 114.34V98.16H69.85v16.18M58.37 24.97h11.48"/><path fill="#fff" stroke="#673ab7" stroke-width="2" stroke-miterlimit="10" d="M62.7 50.8H45.48l-.03-14.35h17.23z"/><path fill="none" stroke="#673ab7" stroke-width="2" stroke-miterlimit="10" d="M66.98 39.32h15.8m-15.8 5.74h11.48M44.02 56.54h20.1m-20.1 5.74h20.1m-20.1 5.74H55.5"/><path fill="none" stroke="#BCC0C4" stroke-width="2" stroke-miterlimit="10" d="M63.67 12.83H51.02C50.08 11 47.87 9.1 45.3 9.1c-.82 0-1.6.2-2.3.5-1.44-3.83-5.12-6.7-9.44-6.7-5.56 0-10.07 6.27-10.08 9.93H8.68m9.16 14.67H5m16.5 0h3.67m42.16-14.67H71m3.67 0h3.66"/></svg>